M48
; DRILL file {KiCad (7.0.0)} date Fri Mar 31 02:04:24 2023
; FORMAT={-:-/ absolute / inch / decimal}
; #@! TF.CreationDate,2023-03-31T02:04:24+02:00
; #@! TF.GenerationSoftware,Kicad,Pcbnew,(7.0.0)
; #@! TF.FileFunction,Plated,1,2,PTH
FMAT,2
INCH
; #@! TA.AperFunction,Plated,PTH,ComponentDrill
T1C0.0315
%
G90
G05
T1
X4.7Y-2.7
X4.7Y-3.0
X4.7Y-3.3
X4.7Y-3.6
X4.8Y-2.7
X4.8Y-3.0
X4.8Y-3.3
X4.8Y-3.6
X4.9Y-2.7
X4.9Y-3.0
X4.9Y-3.3
X4.9Y-3.6
X5.0Y-2.7
X5.0Y-3.0
X5.0Y-3.3
X5.0Y-3.6
X5.1Y-2.7
X5.1Y-3.0
X5.1Y-3.6
X5.2Y-2.7
X5.2Y-3.0
X5.2Y-3.6
X5.35Y-2.6
X5.35Y-2.7
X5.54Y-2.88
X5.54Y-2.98
X5.54Y-3.08
X5.54Y-3.18
X5.54Y-3.28
X5.54Y-3.38
X6.2093Y-2.58
X6.2093Y-2.68
X6.2093Y-2.78
X6.2093Y-2.88
X6.2093Y-2.98
X6.2093Y-3.08
X6.2093Y-3.18
X6.2093Y-3.28
X6.2093Y-3.38
X6.2093Y-3.48
X6.2093Y-3.58
X6.2093Y-3.68
X6.543Y-2.58
X6.543Y-2.68
X6.543Y-2.78
X6.543Y-2.88
X6.543Y-2.98
X6.543Y-3.08
X6.543Y-3.18
X6.543Y-3.28
X6.543Y-3.38
X6.543Y-3.48
X6.543Y-3.58
X6.543Y-3.68
X6.663Y-2.58
X6.663Y-2.68
X6.663Y-2.78
X6.663Y-2.88
X6.663Y-2.98
X6.663Y-3.08
X6.663Y-3.18
X6.663Y-3.28
X6.663Y-3.38
X6.663Y-3.48
X6.663Y-3.58
X6.663Y-3.68
T0
M30
