%TF.GenerationSoftware,KiCad,Pcbnew,(7.0.0)*%
%TF.CreationDate,2023-03-31T02:03:59+02:00*%
%TF.ProjectId,HM-PlateauUtilisateur,484d2d50-6c61-4746-9561-755574696c69,rev?*%
%TF.SameCoordinates,Original*%
%TF.FileFunction,Copper,L1,Top*%
%TF.FilePolarity,Positive*%
%FSLAX46Y46*%
G04 Gerber Fmt 4.6, Leading zero omitted, Abs format (unit mm)*
G04 Created by KiCad (PCBNEW (7.0.0)) date 2023-03-31 02:03:59*
%MOMM*%
%LPD*%
G01*
G04 APERTURE LIST*
%TA.AperFunction,ComponentPad*%
%ADD10O,1.200000X2.000000*%
%TD*%
%TA.AperFunction,ComponentPad*%
%ADD11O,2.500000X1.500000*%
%TD*%
%TA.AperFunction,ComponentPad*%
%ADD12O,2.000000X1.200000*%
%TD*%
%TA.AperFunction,Conductor*%
%ADD13C,0.800000*%
%TD*%
%TA.AperFunction,Conductor*%
%ADD14C,0.500000*%
%TD*%
G04 APERTURE END LIST*
D10*
%TO.P,J7,1,Pin_1*%
%TO.N,/SCL*%
X132079999Y-91439999D03*
%TO.P,J7,2,Pin_2*%
%TO.N,Net-(J6-Pin_2)*%
X129539999Y-91439999D03*
%TO.P,J7,3,Pin_3*%
%TO.N,/SDA*%
X126999999Y-91439999D03*
%TD*%
D11*
%TO.P,U1,1,3V3*%
%TO.N,/3V3*%
X140715999Y-73151999D03*
%TO.P,U1,2,~{IRQ}*%
%TO.N,unconnected-(U1-~{IRQ}-Pad2)*%
X140715999Y-75691999D03*
%TO.P,U1,3,SCL*%
%TO.N,/SCL*%
X140715999Y-78231999D03*
%TO.P,U1,4,SDA*%
%TO.N,/SDA*%
X140715999Y-80771999D03*
%TO.P,U1,5,ADDR*%
%TO.N,Net-(J6-Pin_2)*%
X140715999Y-83311999D03*
%TO.P,U1,6,GND*%
%TO.N,/GND*%
X140715999Y-85851999D03*
%TO.P,U1,7,ELE0*%
%TO.N,Net-(J2-Pin_1)*%
X157715999Y-93471999D03*
%TO.P,U1,8,ELE1*%
%TO.N,Net-(J2-Pin_2)*%
X157715999Y-90931999D03*
%TO.P,U1,9,ELE2*%
%TO.N,Net-(J2-Pin_3)*%
X157715999Y-88391999D03*
%TO.P,U1,10,ELE3*%
%TO.N,Net-(J2-Pin_4)*%
X157715999Y-85851999D03*
%TO.P,U1,11,LED0/ELE4*%
%TO.N,Net-(J2-Pin_5)*%
X157715999Y-83311999D03*
%TO.P,U1,12,LED1/ELE5*%
%TO.N,Net-(J2-Pin_6)*%
X157715999Y-80771999D03*
%TO.P,U1,13,LED2/ELE6*%
%TO.N,Net-(J2-Pin_7)*%
X157715999Y-78231999D03*
%TO.P,U1,14,LED3/ELE7*%
%TO.N,Net-(J2-Pin_8)*%
X157715999Y-75691999D03*
%TO.P,U1,15,LED4/ELE8*%
%TO.N,Net-(J2-Pin_9)*%
X157715999Y-73151999D03*
%TO.P,U1,16,LED5/ELE9*%
%TO.N,Net-(J2-Pin_10)*%
X157715999Y-70611999D03*
%TO.P,U1,17,LED6/ELE10*%
%TO.N,Net-(J2-Pin_11)*%
X157715999Y-68071999D03*
%TO.P,U1,18,LED7/ELE11*%
%TO.N,Net-(J2-Pin_12)*%
X157715999Y-65531999D03*
%TD*%
D12*
%TO.P,J8,1,Pin_1*%
%TO.N,Net-(J1A1-Pin_6)*%
X135889999Y-66039999D03*
%TO.P,J8,2,Pin_2*%
%TO.N,Net-(J1A1-Pin_5)*%
X135889999Y-68579999D03*
%TD*%
D10*
%TO.P,J6,1,Pin_1*%
%TO.N,/3V3*%
X124459999Y-91439999D03*
%TO.P,J6,2,Pin_2*%
%TO.N,Net-(J6-Pin_2)*%
X121919999Y-91439999D03*
%TO.P,J6,3,Pin_3*%
%TO.N,/GND*%
X119379999Y-91439999D03*
%TD*%
%TO.P,J3,1,Pin_1*%
%TO.N,/GND*%
X119379999Y-83819999D03*
%TO.P,J3,2,Pin_2*%
%TO.N,/3V3*%
X121919999Y-83819999D03*
%TO.P,J3,3,Pin_3*%
%TO.N,/SCL*%
X124459999Y-83819999D03*
%TO.P,J3,4,Pin_4*%
%TO.N,/SDA*%
X126999999Y-83819999D03*
%TD*%
%TO.P,J2,1,Pin_1*%
%TO.N,/GND*%
X119379999Y-76199999D03*
%TO.P,J2,2,Pin_2*%
%TO.N,/3V3*%
X121919999Y-76199999D03*
%TO.P,J2,3,Pin_3*%
%TO.N,/SCL*%
X124459999Y-76199999D03*
%TO.P,J2,4,Pin_4*%
%TO.N,/SDA*%
X126999999Y-76199999D03*
%TO.P,J2,5,Pin_5*%
%TO.N,unconnected-(J3A1-Pin_5-Pad5)*%
X129539999Y-76199999D03*
%TO.P,J2,6,Pin_6*%
%TO.N,unconnected-(J3A1-Pin_6-Pad6)*%
X132079999Y-76199999D03*
%TD*%
D12*
%TO.P,J3,1,Pin_1*%
%TO.N,/GND*%
X169241249Y-93471999D03*
%TO.P,J3,2,Pin_2*%
X169241249Y-90931999D03*
%TO.P,J3,3,Pin_3*%
X169241249Y-88391999D03*
%TO.P,J3,4,Pin_4*%
X169241249Y-85851999D03*
%TO.P,J3,5,Pin_5*%
X169241249Y-83311999D03*
%TO.P,J3,6,Pin_6*%
X169241249Y-80771999D03*
%TO.P,J3,7,Pin_7*%
X169241249Y-78231999D03*
%TO.P,J3,8,Pin_8*%
X169241249Y-75691999D03*
%TO.P,J3,9,Pin_9*%
X169241249Y-73151999D03*
%TO.P,J3,10,Pin_10*%
X169241249Y-70611999D03*
%TO.P,J3,11,Pin_11*%
X169241249Y-68071999D03*
%TO.P,J3,12,Pin_12*%
X169241249Y-65531999D03*
%TD*%
%TO.P,J2,1,Pin_1*%
%TO.N,Net-(J2-Pin_1)*%
X166193249Y-93471999D03*
%TO.P,J2,2,Pin_2*%
%TO.N,Net-(J2-Pin_2)*%
X166193249Y-90931999D03*
%TO.P,J2,3,Pin_3*%
%TO.N,Net-(J2-Pin_3)*%
X166193249Y-88391999D03*
%TO.P,J2,4,Pin_4*%
%TO.N,Net-(J2-Pin_4)*%
X166193249Y-85851999D03*
%TO.P,J2,5,Pin_5*%
%TO.N,Net-(J2-Pin_5)*%
X166193249Y-83311999D03*
%TO.P,J2,6,Pin_6*%
%TO.N,Net-(J2-Pin_6)*%
X166193249Y-80771999D03*
%TO.P,J2,7,Pin_7*%
%TO.N,Net-(J2-Pin_7)*%
X166193249Y-78231999D03*
%TO.P,J2,8,Pin_8*%
%TO.N,Net-(J2-Pin_8)*%
X166193249Y-75691999D03*
%TO.P,J2,9,Pin_9*%
%TO.N,Net-(J2-Pin_9)*%
X166193249Y-73151999D03*
%TO.P,J2,10,Pin_10*%
%TO.N,Net-(J2-Pin_10)*%
X166193249Y-70611999D03*
%TO.P,J2,11,Pin_11*%
%TO.N,Net-(J2-Pin_11)*%
X166193249Y-68071999D03*
%TO.P,J2,12,Pin_12*%
%TO.N,Net-(J2-Pin_12)*%
X166193249Y-65531999D03*
%TD*%
D10*
%TO.P,J1,1,Pin_1*%
%TO.N,/GND*%
X119379999Y-68579999D03*
%TO.P,J1,2,Pin_2*%
%TO.N,/3V3*%
X121919999Y-68579999D03*
%TO.P,J1,3,Pin_3*%
%TO.N,/SCL*%
X124459999Y-68579999D03*
%TO.P,J1,4,Pin_4*%
%TO.N,/SDA*%
X126999999Y-68579999D03*
%TO.P,J1,5,Pin_5*%
%TO.N,Net-(J1A1-Pin_5)*%
X129539999Y-68579999D03*
%TO.P,J1,6,Pin_6*%
%TO.N,Net-(J1A1-Pin_6)*%
X132079999Y-68579999D03*
%TD*%
D13*
%TO.N,/3V3*%
X139140900Y-73152000D02*
X140716000Y-73152000D01*
X123134900Y-73660000D02*
X138632900Y-73660000D01*
X138632900Y-73660000D02*
X139140900Y-73152000D01*
X121920000Y-76200000D02*
X121920000Y-74874900D01*
X121920000Y-74874900D02*
X123134900Y-73660000D01*
D14*
%TO.N,/SCL*%
X124460000Y-77470000D02*
X125730000Y-78740000D01*
X124460000Y-76200000D02*
X124460000Y-76862500D01*
X144780000Y-91440000D02*
X146685000Y-89535000D01*
X146685000Y-89535000D02*
X146685000Y-80010000D01*
X139140900Y-78232000D02*
X140716000Y-78232000D01*
X144907000Y-78232000D02*
X140716000Y-78232000D01*
X138632900Y-78740000D02*
X139140900Y-78232000D01*
X124460000Y-76200000D02*
X124460000Y-77470000D01*
X125730000Y-78740000D02*
X138632900Y-78740000D01*
X132080000Y-91440000D02*
X144780000Y-91440000D01*
X146685000Y-80010000D02*
X144907000Y-78232000D01*
%TD*%
M02*
