%TF.GenerationSoftware,KiCad,Pcbnew,(7.0.0)*%
%TF.CreationDate,2023-03-31T02:03:59+02:00*%
%TF.ProjectId,HM-PlateauUtilisateur,484d2d50-6c61-4746-9561-755574696c69,rev?*%
%TF.SameCoordinates,Original*%
%TF.FileFunction,Legend,Top*%
%TF.FilePolarity,Positive*%
%FSLAX46Y46*%
G04 Gerber Fmt 4.6, Leading zero omitted, Abs format (unit mm)*
G04 Created by KiCad (PCBNEW (7.0.0)) date 2023-03-31 02:03:59*
%MOMM*%
%LPD*%
G01*
G04 APERTURE LIST*
%ADD10C,0.150000*%
%ADD11C,0.100000*%
%ADD12C,0.120000*%
G04 APERTURE END LIST*
D10*
X174220000Y-63500000D02*
G75*
G03*
X174220000Y-63500000I-1500000J0D01*
G01*
X118340000Y-97790000D02*
G75*
G03*
X118340000Y-97790000I-1500000J0D01*
G01*
X118340000Y-63500000D02*
G75*
G03*
X118340000Y-63500000I-1500000J0D01*
G01*
X174220000Y-97790000D02*
G75*
G03*
X174220000Y-97790000I-1500000J0D01*
G01*
X120094285Y-94032380D02*
X119618095Y-94032380D01*
X119618095Y-94032380D02*
X119570476Y-94508571D01*
X119570476Y-94508571D02*
X119618095Y-94460952D01*
X119618095Y-94460952D02*
X119713333Y-94413333D01*
X119713333Y-94413333D02*
X119951428Y-94413333D01*
X119951428Y-94413333D02*
X120046666Y-94460952D01*
X120046666Y-94460952D02*
X120094285Y-94508571D01*
X120094285Y-94508571D02*
X120141904Y-94603809D01*
X120141904Y-94603809D02*
X120141904Y-94841904D01*
X120141904Y-94841904D02*
X120094285Y-94937142D01*
X120094285Y-94937142D02*
X120046666Y-94984761D01*
X120046666Y-94984761D02*
X119951428Y-95032380D01*
X119951428Y-95032380D02*
X119713333Y-95032380D01*
X119713333Y-95032380D02*
X119618095Y-94984761D01*
X119618095Y-94984761D02*
X119570476Y-94937142D01*
X120522857Y-94746666D02*
X120999047Y-94746666D01*
X120427619Y-95032380D02*
X120760952Y-94032380D01*
X120760952Y-94032380D02*
X121094285Y-95032380D01*
X122141904Y-93984761D02*
X121284762Y-95270476D01*
X122951428Y-94032380D02*
X122475238Y-94032380D01*
X122475238Y-94032380D02*
X122427619Y-94508571D01*
X122427619Y-94508571D02*
X122475238Y-94460952D01*
X122475238Y-94460952D02*
X122570476Y-94413333D01*
X122570476Y-94413333D02*
X122808571Y-94413333D01*
X122808571Y-94413333D02*
X122903809Y-94460952D01*
X122903809Y-94460952D02*
X122951428Y-94508571D01*
X122951428Y-94508571D02*
X122999047Y-94603809D01*
X122999047Y-94603809D02*
X122999047Y-94841904D01*
X122999047Y-94841904D02*
X122951428Y-94937142D01*
X122951428Y-94937142D02*
X122903809Y-94984761D01*
X122903809Y-94984761D02*
X122808571Y-95032380D01*
X122808571Y-95032380D02*
X122570476Y-95032380D01*
X122570476Y-95032380D02*
X122475238Y-94984761D01*
X122475238Y-94984761D02*
X122427619Y-94937142D01*
X123760952Y-94508571D02*
X123903809Y-94556190D01*
X123903809Y-94556190D02*
X123951428Y-94603809D01*
X123951428Y-94603809D02*
X123999047Y-94699047D01*
X123999047Y-94699047D02*
X123999047Y-94841904D01*
X123999047Y-94841904D02*
X123951428Y-94937142D01*
X123951428Y-94937142D02*
X123903809Y-94984761D01*
X123903809Y-94984761D02*
X123808571Y-95032380D01*
X123808571Y-95032380D02*
X123427619Y-95032380D01*
X123427619Y-95032380D02*
X123427619Y-94032380D01*
X123427619Y-94032380D02*
X123760952Y-94032380D01*
X123760952Y-94032380D02*
X123856190Y-94080000D01*
X123856190Y-94080000D02*
X123903809Y-94127619D01*
X123903809Y-94127619D02*
X123951428Y-94222857D01*
X123951428Y-94222857D02*
X123951428Y-94318095D01*
X123951428Y-94318095D02*
X123903809Y-94413333D01*
X123903809Y-94413333D02*
X123856190Y-94460952D01*
X123856190Y-94460952D02*
X123760952Y-94508571D01*
X123760952Y-94508571D02*
X123427619Y-94508571D01*
X117078095Y-72283571D02*
X117411428Y-72283571D01*
X117554285Y-72807380D02*
X117078095Y-72807380D01*
X117078095Y-72807380D02*
X117078095Y-71807380D01*
X117078095Y-71807380D02*
X117554285Y-71807380D01*
X117887619Y-72807380D02*
X118411428Y-72140714D01*
X117887619Y-72140714D02*
X118411428Y-72807380D01*
X118649524Y-72140714D02*
X119030476Y-72140714D01*
X118792381Y-71807380D02*
X118792381Y-72664523D01*
X118792381Y-72664523D02*
X118840000Y-72759761D01*
X118840000Y-72759761D02*
X118935238Y-72807380D01*
X118935238Y-72807380D02*
X119030476Y-72807380D01*
X119744762Y-72759761D02*
X119649524Y-72807380D01*
X119649524Y-72807380D02*
X119459048Y-72807380D01*
X119459048Y-72807380D02*
X119363810Y-72759761D01*
X119363810Y-72759761D02*
X119316191Y-72664523D01*
X119316191Y-72664523D02*
X119316191Y-72283571D01*
X119316191Y-72283571D02*
X119363810Y-72188333D01*
X119363810Y-72188333D02*
X119459048Y-72140714D01*
X119459048Y-72140714D02*
X119649524Y-72140714D01*
X119649524Y-72140714D02*
X119744762Y-72188333D01*
X119744762Y-72188333D02*
X119792381Y-72283571D01*
X119792381Y-72283571D02*
X119792381Y-72378809D01*
X119792381Y-72378809D02*
X119316191Y-72474047D01*
X120220953Y-72140714D02*
X120220953Y-72807380D01*
X120220953Y-72235952D02*
X120268572Y-72188333D01*
X120268572Y-72188333D02*
X120363810Y-72140714D01*
X120363810Y-72140714D02*
X120506667Y-72140714D01*
X120506667Y-72140714D02*
X120601905Y-72188333D01*
X120601905Y-72188333D02*
X120649524Y-72283571D01*
X120649524Y-72283571D02*
X120649524Y-72807380D01*
X121078096Y-72759761D02*
X121173334Y-72807380D01*
X121173334Y-72807380D02*
X121363810Y-72807380D01*
X121363810Y-72807380D02*
X121459048Y-72759761D01*
X121459048Y-72759761D02*
X121506667Y-72664523D01*
X121506667Y-72664523D02*
X121506667Y-72616904D01*
X121506667Y-72616904D02*
X121459048Y-72521666D01*
X121459048Y-72521666D02*
X121363810Y-72474047D01*
X121363810Y-72474047D02*
X121220953Y-72474047D01*
X121220953Y-72474047D02*
X121125715Y-72426428D01*
X121125715Y-72426428D02*
X121078096Y-72331190D01*
X121078096Y-72331190D02*
X121078096Y-72283571D01*
X121078096Y-72283571D02*
X121125715Y-72188333D01*
X121125715Y-72188333D02*
X121220953Y-72140714D01*
X121220953Y-72140714D02*
X121363810Y-72140714D01*
X121363810Y-72140714D02*
X121459048Y-72188333D01*
X121935239Y-72807380D02*
X121935239Y-72140714D01*
X121935239Y-71807380D02*
X121887620Y-71855000D01*
X121887620Y-71855000D02*
X121935239Y-71902619D01*
X121935239Y-71902619D02*
X121982858Y-71855000D01*
X121982858Y-71855000D02*
X121935239Y-71807380D01*
X121935239Y-71807380D02*
X121935239Y-71902619D01*
X122554286Y-72807380D02*
X122459048Y-72759761D01*
X122459048Y-72759761D02*
X122411429Y-72712142D01*
X122411429Y-72712142D02*
X122363810Y-72616904D01*
X122363810Y-72616904D02*
X122363810Y-72331190D01*
X122363810Y-72331190D02*
X122411429Y-72235952D01*
X122411429Y-72235952D02*
X122459048Y-72188333D01*
X122459048Y-72188333D02*
X122554286Y-72140714D01*
X122554286Y-72140714D02*
X122697143Y-72140714D01*
X122697143Y-72140714D02*
X122792381Y-72188333D01*
X122792381Y-72188333D02*
X122840000Y-72235952D01*
X122840000Y-72235952D02*
X122887619Y-72331190D01*
X122887619Y-72331190D02*
X122887619Y-72616904D01*
X122887619Y-72616904D02*
X122840000Y-72712142D01*
X122840000Y-72712142D02*
X122792381Y-72759761D01*
X122792381Y-72759761D02*
X122697143Y-72807380D01*
X122697143Y-72807380D02*
X122554286Y-72807380D01*
X123316191Y-72140714D02*
X123316191Y-72807380D01*
X123316191Y-72235952D02*
X123363810Y-72188333D01*
X123363810Y-72188333D02*
X123459048Y-72140714D01*
X123459048Y-72140714D02*
X123601905Y-72140714D01*
X123601905Y-72140714D02*
X123697143Y-72188333D01*
X123697143Y-72188333D02*
X123744762Y-72283571D01*
X123744762Y-72283571D02*
X123744762Y-72807380D01*
X117665476Y-88634761D02*
X117808333Y-88682380D01*
X117808333Y-88682380D02*
X118046428Y-88682380D01*
X118046428Y-88682380D02*
X118141666Y-88634761D01*
X118141666Y-88634761D02*
X118189285Y-88587142D01*
X118189285Y-88587142D02*
X118236904Y-88491904D01*
X118236904Y-88491904D02*
X118236904Y-88396666D01*
X118236904Y-88396666D02*
X118189285Y-88301428D01*
X118189285Y-88301428D02*
X118141666Y-88253809D01*
X118141666Y-88253809D02*
X118046428Y-88206190D01*
X118046428Y-88206190D02*
X117855952Y-88158571D01*
X117855952Y-88158571D02*
X117760714Y-88110952D01*
X117760714Y-88110952D02*
X117713095Y-88063333D01*
X117713095Y-88063333D02*
X117665476Y-87968095D01*
X117665476Y-87968095D02*
X117665476Y-87872857D01*
X117665476Y-87872857D02*
X117713095Y-87777619D01*
X117713095Y-87777619D02*
X117760714Y-87730000D01*
X117760714Y-87730000D02*
X117855952Y-87682380D01*
X117855952Y-87682380D02*
X118094047Y-87682380D01*
X118094047Y-87682380D02*
X118236904Y-87730000D01*
X119046428Y-88634761D02*
X118951190Y-88682380D01*
X118951190Y-88682380D02*
X118760714Y-88682380D01*
X118760714Y-88682380D02*
X118665476Y-88634761D01*
X118665476Y-88634761D02*
X118617857Y-88539523D01*
X118617857Y-88539523D02*
X118617857Y-88158571D01*
X118617857Y-88158571D02*
X118665476Y-88063333D01*
X118665476Y-88063333D02*
X118760714Y-88015714D01*
X118760714Y-88015714D02*
X118951190Y-88015714D01*
X118951190Y-88015714D02*
X119046428Y-88063333D01*
X119046428Y-88063333D02*
X119094047Y-88158571D01*
X119094047Y-88158571D02*
X119094047Y-88253809D01*
X119094047Y-88253809D02*
X118617857Y-88349047D01*
X119665476Y-88682380D02*
X119570238Y-88634761D01*
X119570238Y-88634761D02*
X119522619Y-88539523D01*
X119522619Y-88539523D02*
X119522619Y-87682380D01*
X120427381Y-88634761D02*
X120332143Y-88682380D01*
X120332143Y-88682380D02*
X120141667Y-88682380D01*
X120141667Y-88682380D02*
X120046429Y-88634761D01*
X120046429Y-88634761D02*
X119998810Y-88539523D01*
X119998810Y-88539523D02*
X119998810Y-88158571D01*
X119998810Y-88158571D02*
X120046429Y-88063333D01*
X120046429Y-88063333D02*
X120141667Y-88015714D01*
X120141667Y-88015714D02*
X120332143Y-88015714D01*
X120332143Y-88015714D02*
X120427381Y-88063333D01*
X120427381Y-88063333D02*
X120475000Y-88158571D01*
X120475000Y-88158571D02*
X120475000Y-88253809D01*
X120475000Y-88253809D02*
X119998810Y-88349047D01*
X121332143Y-88634761D02*
X121236905Y-88682380D01*
X121236905Y-88682380D02*
X121046429Y-88682380D01*
X121046429Y-88682380D02*
X120951191Y-88634761D01*
X120951191Y-88634761D02*
X120903572Y-88587142D01*
X120903572Y-88587142D02*
X120855953Y-88491904D01*
X120855953Y-88491904D02*
X120855953Y-88206190D01*
X120855953Y-88206190D02*
X120903572Y-88110952D01*
X120903572Y-88110952D02*
X120951191Y-88063333D01*
X120951191Y-88063333D02*
X121046429Y-88015714D01*
X121046429Y-88015714D02*
X121236905Y-88015714D01*
X121236905Y-88015714D02*
X121332143Y-88063333D01*
X121617858Y-88015714D02*
X121998810Y-88015714D01*
X121760715Y-87682380D02*
X121760715Y-88539523D01*
X121760715Y-88539523D02*
X121808334Y-88634761D01*
X121808334Y-88634761D02*
X121903572Y-88682380D01*
X121903572Y-88682380D02*
X121998810Y-88682380D01*
X122332144Y-88682380D02*
X122332144Y-88015714D01*
X122332144Y-87682380D02*
X122284525Y-87730000D01*
X122284525Y-87730000D02*
X122332144Y-87777619D01*
X122332144Y-87777619D02*
X122379763Y-87730000D01*
X122379763Y-87730000D02*
X122332144Y-87682380D01*
X122332144Y-87682380D02*
X122332144Y-87777619D01*
X122951191Y-88682380D02*
X122855953Y-88634761D01*
X122855953Y-88634761D02*
X122808334Y-88587142D01*
X122808334Y-88587142D02*
X122760715Y-88491904D01*
X122760715Y-88491904D02*
X122760715Y-88206190D01*
X122760715Y-88206190D02*
X122808334Y-88110952D01*
X122808334Y-88110952D02*
X122855953Y-88063333D01*
X122855953Y-88063333D02*
X122951191Y-88015714D01*
X122951191Y-88015714D02*
X123094048Y-88015714D01*
X123094048Y-88015714D02*
X123189286Y-88063333D01*
X123189286Y-88063333D02*
X123236905Y-88110952D01*
X123236905Y-88110952D02*
X123284524Y-88206190D01*
X123284524Y-88206190D02*
X123284524Y-88491904D01*
X123284524Y-88491904D02*
X123236905Y-88587142D01*
X123236905Y-88587142D02*
X123189286Y-88634761D01*
X123189286Y-88634761D02*
X123094048Y-88682380D01*
X123094048Y-88682380D02*
X122951191Y-88682380D01*
X123713096Y-88015714D02*
X123713096Y-88682380D01*
X123713096Y-88110952D02*
X123760715Y-88063333D01*
X123760715Y-88063333D02*
X123855953Y-88015714D01*
X123855953Y-88015714D02*
X123998810Y-88015714D01*
X123998810Y-88015714D02*
X124094048Y-88063333D01*
X124094048Y-88063333D02*
X124141667Y-88158571D01*
X124141667Y-88158571D02*
X124141667Y-88682380D01*
X122158095Y-63282380D02*
X122158095Y-62282380D01*
X122158095Y-62758571D02*
X122729523Y-62758571D01*
X122729523Y-63282380D02*
X122729523Y-62282380D01*
X123634285Y-62615714D02*
X123634285Y-63282380D01*
X123205714Y-62615714D02*
X123205714Y-63139523D01*
X123205714Y-63139523D02*
X123253333Y-63234761D01*
X123253333Y-63234761D02*
X123348571Y-63282380D01*
X123348571Y-63282380D02*
X123491428Y-63282380D01*
X123491428Y-63282380D02*
X123586666Y-63234761D01*
X123586666Y-63234761D02*
X123634285Y-63187142D01*
X124110476Y-63282380D02*
X124110476Y-62615714D01*
X124110476Y-62710952D02*
X124158095Y-62663333D01*
X124158095Y-62663333D02*
X124253333Y-62615714D01*
X124253333Y-62615714D02*
X124396190Y-62615714D01*
X124396190Y-62615714D02*
X124491428Y-62663333D01*
X124491428Y-62663333D02*
X124539047Y-62758571D01*
X124539047Y-62758571D02*
X124539047Y-63282380D01*
X124539047Y-62758571D02*
X124586666Y-62663333D01*
X124586666Y-62663333D02*
X124681904Y-62615714D01*
X124681904Y-62615714D02*
X124824761Y-62615714D01*
X124824761Y-62615714D02*
X124920000Y-62663333D01*
X124920000Y-62663333D02*
X124967619Y-62758571D01*
X124967619Y-62758571D02*
X124967619Y-63282380D01*
X125872380Y-63282380D02*
X125872380Y-62758571D01*
X125872380Y-62758571D02*
X125824761Y-62663333D01*
X125824761Y-62663333D02*
X125729523Y-62615714D01*
X125729523Y-62615714D02*
X125539047Y-62615714D01*
X125539047Y-62615714D02*
X125443809Y-62663333D01*
X125872380Y-63234761D02*
X125777142Y-63282380D01*
X125777142Y-63282380D02*
X125539047Y-63282380D01*
X125539047Y-63282380D02*
X125443809Y-63234761D01*
X125443809Y-63234761D02*
X125396190Y-63139523D01*
X125396190Y-63139523D02*
X125396190Y-63044285D01*
X125396190Y-63044285D02*
X125443809Y-62949047D01*
X125443809Y-62949047D02*
X125539047Y-62901428D01*
X125539047Y-62901428D02*
X125777142Y-62901428D01*
X125777142Y-62901428D02*
X125872380Y-62853809D01*
X126348571Y-62615714D02*
X126348571Y-63282380D01*
X126348571Y-62710952D02*
X126396190Y-62663333D01*
X126396190Y-62663333D02*
X126491428Y-62615714D01*
X126491428Y-62615714D02*
X126634285Y-62615714D01*
X126634285Y-62615714D02*
X126729523Y-62663333D01*
X126729523Y-62663333D02*
X126777142Y-62758571D01*
X126777142Y-62758571D02*
X126777142Y-63282380D01*
X127729523Y-63282380D02*
X127253333Y-63282380D01*
X127253333Y-63282380D02*
X127253333Y-62282380D01*
X128491428Y-63282380D02*
X128491428Y-62758571D01*
X128491428Y-62758571D02*
X128443809Y-62663333D01*
X128443809Y-62663333D02*
X128348571Y-62615714D01*
X128348571Y-62615714D02*
X128158095Y-62615714D01*
X128158095Y-62615714D02*
X128062857Y-62663333D01*
X128491428Y-63234761D02*
X128396190Y-63282380D01*
X128396190Y-63282380D02*
X128158095Y-63282380D01*
X128158095Y-63282380D02*
X128062857Y-63234761D01*
X128062857Y-63234761D02*
X128015238Y-63139523D01*
X128015238Y-63139523D02*
X128015238Y-63044285D01*
X128015238Y-63044285D02*
X128062857Y-62949047D01*
X128062857Y-62949047D02*
X128158095Y-62901428D01*
X128158095Y-62901428D02*
X128396190Y-62901428D01*
X128396190Y-62901428D02*
X128491428Y-62853809D01*
X128967619Y-63282380D02*
X128967619Y-62282380D01*
X128967619Y-62663333D02*
X129062857Y-62615714D01*
X129062857Y-62615714D02*
X129253333Y-62615714D01*
X129253333Y-62615714D02*
X129348571Y-62663333D01*
X129348571Y-62663333D02*
X129396190Y-62710952D01*
X129396190Y-62710952D02*
X129443809Y-62806190D01*
X129443809Y-62806190D02*
X129443809Y-63091904D01*
X129443809Y-63091904D02*
X129396190Y-63187142D01*
X129396190Y-63187142D02*
X129348571Y-63234761D01*
X129348571Y-63234761D02*
X129253333Y-63282380D01*
X129253333Y-63282380D02*
X129062857Y-63282380D01*
X129062857Y-63282380D02*
X128967619Y-63234761D01*
X129872381Y-62901428D02*
X130634286Y-62901428D01*
X131710476Y-63282380D02*
X131710476Y-62282380D01*
X131710476Y-62282380D02*
X132091428Y-62282380D01*
X132091428Y-62282380D02*
X132186666Y-62330000D01*
X132186666Y-62330000D02*
X132234285Y-62377619D01*
X132234285Y-62377619D02*
X132281904Y-62472857D01*
X132281904Y-62472857D02*
X132281904Y-62615714D01*
X132281904Y-62615714D02*
X132234285Y-62710952D01*
X132234285Y-62710952D02*
X132186666Y-62758571D01*
X132186666Y-62758571D02*
X132091428Y-62806190D01*
X132091428Y-62806190D02*
X131710476Y-62806190D01*
X132710476Y-62282380D02*
X132710476Y-63091904D01*
X132710476Y-63091904D02*
X132758095Y-63187142D01*
X132758095Y-63187142D02*
X132805714Y-63234761D01*
X132805714Y-63234761D02*
X132900952Y-63282380D01*
X132900952Y-63282380D02*
X133091428Y-63282380D01*
X133091428Y-63282380D02*
X133186666Y-63234761D01*
X133186666Y-63234761D02*
X133234285Y-63187142D01*
X133234285Y-63187142D02*
X133281904Y-63091904D01*
X133281904Y-63091904D02*
X133281904Y-62282380D01*
X134281904Y-63282380D02*
X133710476Y-63282380D01*
X133996190Y-63282380D02*
X133996190Y-62282380D01*
X133996190Y-62282380D02*
X133900952Y-62425238D01*
X133900952Y-62425238D02*
X133805714Y-62520476D01*
X133805714Y-62520476D02*
X133710476Y-62568095D01*
X127714285Y-94032380D02*
X127238095Y-94032380D01*
X127238095Y-94032380D02*
X127190476Y-94508571D01*
X127190476Y-94508571D02*
X127238095Y-94460952D01*
X127238095Y-94460952D02*
X127333333Y-94413333D01*
X127333333Y-94413333D02*
X127571428Y-94413333D01*
X127571428Y-94413333D02*
X127666666Y-94460952D01*
X127666666Y-94460952D02*
X127714285Y-94508571D01*
X127714285Y-94508571D02*
X127761904Y-94603809D01*
X127761904Y-94603809D02*
X127761904Y-94841904D01*
X127761904Y-94841904D02*
X127714285Y-94937142D01*
X127714285Y-94937142D02*
X127666666Y-94984761D01*
X127666666Y-94984761D02*
X127571428Y-95032380D01*
X127571428Y-95032380D02*
X127333333Y-95032380D01*
X127333333Y-95032380D02*
X127238095Y-94984761D01*
X127238095Y-94984761D02*
X127190476Y-94937142D01*
X128761904Y-94937142D02*
X128714285Y-94984761D01*
X128714285Y-94984761D02*
X128571428Y-95032380D01*
X128571428Y-95032380D02*
X128476190Y-95032380D01*
X128476190Y-95032380D02*
X128333333Y-94984761D01*
X128333333Y-94984761D02*
X128238095Y-94889523D01*
X128238095Y-94889523D02*
X128190476Y-94794285D01*
X128190476Y-94794285D02*
X128142857Y-94603809D01*
X128142857Y-94603809D02*
X128142857Y-94460952D01*
X128142857Y-94460952D02*
X128190476Y-94270476D01*
X128190476Y-94270476D02*
X128238095Y-94175238D01*
X128238095Y-94175238D02*
X128333333Y-94080000D01*
X128333333Y-94080000D02*
X128476190Y-94032380D01*
X128476190Y-94032380D02*
X128571428Y-94032380D01*
X128571428Y-94032380D02*
X128714285Y-94080000D01*
X128714285Y-94080000D02*
X128761904Y-94127619D01*
X129904761Y-93984761D02*
X129047619Y-95270476D01*
X130714285Y-94032380D02*
X130238095Y-94032380D01*
X130238095Y-94032380D02*
X130190476Y-94508571D01*
X130190476Y-94508571D02*
X130238095Y-94460952D01*
X130238095Y-94460952D02*
X130333333Y-94413333D01*
X130333333Y-94413333D02*
X130571428Y-94413333D01*
X130571428Y-94413333D02*
X130666666Y-94460952D01*
X130666666Y-94460952D02*
X130714285Y-94508571D01*
X130714285Y-94508571D02*
X130761904Y-94603809D01*
X130761904Y-94603809D02*
X130761904Y-94841904D01*
X130761904Y-94841904D02*
X130714285Y-94937142D01*
X130714285Y-94937142D02*
X130666666Y-94984761D01*
X130666666Y-94984761D02*
X130571428Y-95032380D01*
X130571428Y-95032380D02*
X130333333Y-95032380D01*
X130333333Y-95032380D02*
X130238095Y-94984761D01*
X130238095Y-94984761D02*
X130190476Y-94937142D01*
X131190476Y-95032380D02*
X131190476Y-94032380D01*
X131190476Y-94032380D02*
X131428571Y-94032380D01*
X131428571Y-94032380D02*
X131571428Y-94080000D01*
X131571428Y-94080000D02*
X131666666Y-94175238D01*
X131666666Y-94175238D02*
X131714285Y-94270476D01*
X131714285Y-94270476D02*
X131761904Y-94460952D01*
X131761904Y-94460952D02*
X131761904Y-94603809D01*
X131761904Y-94603809D02*
X131714285Y-94794285D01*
X131714285Y-94794285D02*
X131666666Y-94889523D01*
X131666666Y-94889523D02*
X131571428Y-94984761D01*
X131571428Y-94984761D02*
X131428571Y-95032380D01*
X131428571Y-95032380D02*
X131190476Y-95032380D01*
X119443428Y-65298571D02*
X119586285Y-65346190D01*
X119586285Y-65346190D02*
X119633904Y-65393809D01*
X119633904Y-65393809D02*
X119681523Y-65489047D01*
X119681523Y-65489047D02*
X119681523Y-65631904D01*
X119681523Y-65631904D02*
X119633904Y-65727142D01*
X119633904Y-65727142D02*
X119586285Y-65774761D01*
X119586285Y-65774761D02*
X119491047Y-65822380D01*
X119491047Y-65822380D02*
X119110095Y-65822380D01*
X119110095Y-65822380D02*
X119110095Y-64822380D01*
X119110095Y-64822380D02*
X119443428Y-64822380D01*
X119443428Y-64822380D02*
X119538666Y-64870000D01*
X119538666Y-64870000D02*
X119586285Y-64917619D01*
X119586285Y-64917619D02*
X119633904Y-65012857D01*
X119633904Y-65012857D02*
X119633904Y-65108095D01*
X119633904Y-65108095D02*
X119586285Y-65203333D01*
X119586285Y-65203333D02*
X119538666Y-65250952D01*
X119538666Y-65250952D02*
X119443428Y-65298571D01*
X119443428Y-65298571D02*
X119110095Y-65298571D01*
X120538666Y-65822380D02*
X120538666Y-65298571D01*
X120538666Y-65298571D02*
X120491047Y-65203333D01*
X120491047Y-65203333D02*
X120395809Y-65155714D01*
X120395809Y-65155714D02*
X120205333Y-65155714D01*
X120205333Y-65155714D02*
X120110095Y-65203333D01*
X120538666Y-65774761D02*
X120443428Y-65822380D01*
X120443428Y-65822380D02*
X120205333Y-65822380D01*
X120205333Y-65822380D02*
X120110095Y-65774761D01*
X120110095Y-65774761D02*
X120062476Y-65679523D01*
X120062476Y-65679523D02*
X120062476Y-65584285D01*
X120062476Y-65584285D02*
X120110095Y-65489047D01*
X120110095Y-65489047D02*
X120205333Y-65441428D01*
X120205333Y-65441428D02*
X120443428Y-65441428D01*
X120443428Y-65441428D02*
X120538666Y-65393809D01*
X120967238Y-65774761D02*
X121062476Y-65822380D01*
X121062476Y-65822380D02*
X121252952Y-65822380D01*
X121252952Y-65822380D02*
X121348190Y-65774761D01*
X121348190Y-65774761D02*
X121395809Y-65679523D01*
X121395809Y-65679523D02*
X121395809Y-65631904D01*
X121395809Y-65631904D02*
X121348190Y-65536666D01*
X121348190Y-65536666D02*
X121252952Y-65489047D01*
X121252952Y-65489047D02*
X121110095Y-65489047D01*
X121110095Y-65489047D02*
X121014857Y-65441428D01*
X121014857Y-65441428D02*
X120967238Y-65346190D01*
X120967238Y-65346190D02*
X120967238Y-65298571D01*
X120967238Y-65298571D02*
X121014857Y-65203333D01*
X121014857Y-65203333D02*
X121110095Y-65155714D01*
X121110095Y-65155714D02*
X121252952Y-65155714D01*
X121252952Y-65155714D02*
X121348190Y-65203333D01*
X122205333Y-65774761D02*
X122110095Y-65822380D01*
X122110095Y-65822380D02*
X121919619Y-65822380D01*
X121919619Y-65822380D02*
X121824381Y-65774761D01*
X121824381Y-65774761D02*
X121776762Y-65679523D01*
X121776762Y-65679523D02*
X121776762Y-65298571D01*
X121776762Y-65298571D02*
X121824381Y-65203333D01*
X121824381Y-65203333D02*
X121919619Y-65155714D01*
X121919619Y-65155714D02*
X122110095Y-65155714D01*
X122110095Y-65155714D02*
X122205333Y-65203333D01*
X122205333Y-65203333D02*
X122252952Y-65298571D01*
X122252952Y-65298571D02*
X122252952Y-65393809D01*
X122252952Y-65393809D02*
X121776762Y-65489047D01*
X117030476Y-80776666D02*
X117506666Y-80776666D01*
X116935238Y-81062380D02*
X117268571Y-80062380D01*
X117268571Y-80062380D02*
X117601904Y-81062380D01*
X117792381Y-80395714D02*
X118173333Y-80395714D01*
X117935238Y-81062380D02*
X117935238Y-80205238D01*
X117935238Y-80205238D02*
X117982857Y-80110000D01*
X117982857Y-80110000D02*
X118078095Y-80062380D01*
X118078095Y-80062380D02*
X118173333Y-80062380D01*
X118363810Y-80395714D02*
X118744762Y-80395714D01*
X118506667Y-81062380D02*
X118506667Y-80205238D01*
X118506667Y-80205238D02*
X118554286Y-80110000D01*
X118554286Y-80110000D02*
X118649524Y-80062380D01*
X118649524Y-80062380D02*
X118744762Y-80062380D01*
X119078096Y-81062380D02*
X119078096Y-80395714D01*
X119078096Y-80062380D02*
X119030477Y-80110000D01*
X119030477Y-80110000D02*
X119078096Y-80157619D01*
X119078096Y-80157619D02*
X119125715Y-80110000D01*
X119125715Y-80110000D02*
X119078096Y-80062380D01*
X119078096Y-80062380D02*
X119078096Y-80157619D01*
X119982857Y-81014761D02*
X119887619Y-81062380D01*
X119887619Y-81062380D02*
X119697143Y-81062380D01*
X119697143Y-81062380D02*
X119601905Y-81014761D01*
X119601905Y-81014761D02*
X119554286Y-80967142D01*
X119554286Y-80967142D02*
X119506667Y-80871904D01*
X119506667Y-80871904D02*
X119506667Y-80586190D01*
X119506667Y-80586190D02*
X119554286Y-80490952D01*
X119554286Y-80490952D02*
X119601905Y-80443333D01*
X119601905Y-80443333D02*
X119697143Y-80395714D01*
X119697143Y-80395714D02*
X119887619Y-80395714D01*
X119887619Y-80395714D02*
X119982857Y-80443333D01*
X120411429Y-81062380D02*
X120411429Y-80062380D01*
X120840000Y-81062380D02*
X120840000Y-80538571D01*
X120840000Y-80538571D02*
X120792381Y-80443333D01*
X120792381Y-80443333D02*
X120697143Y-80395714D01*
X120697143Y-80395714D02*
X120554286Y-80395714D01*
X120554286Y-80395714D02*
X120459048Y-80443333D01*
X120459048Y-80443333D02*
X120411429Y-80490952D01*
X121697143Y-81014761D02*
X121601905Y-81062380D01*
X121601905Y-81062380D02*
X121411429Y-81062380D01*
X121411429Y-81062380D02*
X121316191Y-81014761D01*
X121316191Y-81014761D02*
X121268572Y-80919523D01*
X121268572Y-80919523D02*
X121268572Y-80538571D01*
X121268572Y-80538571D02*
X121316191Y-80443333D01*
X121316191Y-80443333D02*
X121411429Y-80395714D01*
X121411429Y-80395714D02*
X121601905Y-80395714D01*
X121601905Y-80395714D02*
X121697143Y-80443333D01*
X121697143Y-80443333D02*
X121744762Y-80538571D01*
X121744762Y-80538571D02*
X121744762Y-80633809D01*
X121744762Y-80633809D02*
X121268572Y-80729047D01*
X122601905Y-80395714D02*
X122601905Y-81062380D01*
X122173334Y-80395714D02*
X122173334Y-80919523D01*
X122173334Y-80919523D02*
X122220953Y-81014761D01*
X122220953Y-81014761D02*
X122316191Y-81062380D01*
X122316191Y-81062380D02*
X122459048Y-81062380D01*
X122459048Y-81062380D02*
X122554286Y-81014761D01*
X122554286Y-81014761D02*
X122601905Y-80967142D01*
X123078096Y-81062380D02*
X123078096Y-80395714D01*
X123078096Y-80586190D02*
X123125715Y-80490952D01*
X123125715Y-80490952D02*
X123173334Y-80443333D01*
X123173334Y-80443333D02*
X123268572Y-80395714D01*
X123268572Y-80395714D02*
X123363810Y-80395714D01*
%TO.C,J7*%
X133987380Y-93043333D02*
X134701666Y-93043333D01*
X134701666Y-93043333D02*
X134844523Y-93090952D01*
X134844523Y-93090952D02*
X134939761Y-93186190D01*
X134939761Y-93186190D02*
X134987380Y-93329047D01*
X134987380Y-93329047D02*
X134987380Y-93424285D01*
X133987380Y-92662380D02*
X133987380Y-91995714D01*
X133987380Y-91995714D02*
X134987380Y-92424285D01*
%TO.C,U1*%
X147828095Y-67947380D02*
X147828095Y-68756904D01*
X147828095Y-68756904D02*
X147875714Y-68852142D01*
X147875714Y-68852142D02*
X147923333Y-68899761D01*
X147923333Y-68899761D02*
X148018571Y-68947380D01*
X148018571Y-68947380D02*
X148209047Y-68947380D01*
X148209047Y-68947380D02*
X148304285Y-68899761D01*
X148304285Y-68899761D02*
X148351904Y-68852142D01*
X148351904Y-68852142D02*
X148399523Y-68756904D01*
X148399523Y-68756904D02*
X148399523Y-67947380D01*
X149399523Y-68947380D02*
X148828095Y-68947380D01*
X149113809Y-68947380D02*
X149113809Y-67947380D01*
X149113809Y-67947380D02*
X149018571Y-68090238D01*
X149018571Y-68090238D02*
X148923333Y-68185476D01*
X148923333Y-68185476D02*
X148828095Y-68233095D01*
D11*
X143056476Y-81268761D02*
X143199333Y-81316380D01*
X143199333Y-81316380D02*
X143437428Y-81316380D01*
X143437428Y-81316380D02*
X143532666Y-81268761D01*
X143532666Y-81268761D02*
X143580285Y-81221142D01*
X143580285Y-81221142D02*
X143627904Y-81125904D01*
X143627904Y-81125904D02*
X143627904Y-81030666D01*
X143627904Y-81030666D02*
X143580285Y-80935428D01*
X143580285Y-80935428D02*
X143532666Y-80887809D01*
X143532666Y-80887809D02*
X143437428Y-80840190D01*
X143437428Y-80840190D02*
X143246952Y-80792571D01*
X143246952Y-80792571D02*
X143151714Y-80744952D01*
X143151714Y-80744952D02*
X143104095Y-80697333D01*
X143104095Y-80697333D02*
X143056476Y-80602095D01*
X143056476Y-80602095D02*
X143056476Y-80506857D01*
X143056476Y-80506857D02*
X143104095Y-80411619D01*
X143104095Y-80411619D02*
X143151714Y-80364000D01*
X143151714Y-80364000D02*
X143246952Y-80316380D01*
X143246952Y-80316380D02*
X143485047Y-80316380D01*
X143485047Y-80316380D02*
X143627904Y-80364000D01*
X144056476Y-81316380D02*
X144056476Y-80316380D01*
X144056476Y-80316380D02*
X144294571Y-80316380D01*
X144294571Y-80316380D02*
X144437428Y-80364000D01*
X144437428Y-80364000D02*
X144532666Y-80459238D01*
X144532666Y-80459238D02*
X144580285Y-80554476D01*
X144580285Y-80554476D02*
X144627904Y-80744952D01*
X144627904Y-80744952D02*
X144627904Y-80887809D01*
X144627904Y-80887809D02*
X144580285Y-81078285D01*
X144580285Y-81078285D02*
X144532666Y-81173523D01*
X144532666Y-81173523D02*
X144437428Y-81268761D01*
X144437428Y-81268761D02*
X144294571Y-81316380D01*
X144294571Y-81316380D02*
X144056476Y-81316380D01*
X145008857Y-81030666D02*
X145485047Y-81030666D01*
X144913619Y-81316380D02*
X145246952Y-80316380D01*
X145246952Y-80316380D02*
X145580285Y-81316380D01*
X143262857Y-72696380D02*
X143881904Y-72696380D01*
X143881904Y-72696380D02*
X143548571Y-73077333D01*
X143548571Y-73077333D02*
X143691428Y-73077333D01*
X143691428Y-73077333D02*
X143786666Y-73124952D01*
X143786666Y-73124952D02*
X143834285Y-73172571D01*
X143834285Y-73172571D02*
X143881904Y-73267809D01*
X143881904Y-73267809D02*
X143881904Y-73505904D01*
X143881904Y-73505904D02*
X143834285Y-73601142D01*
X143834285Y-73601142D02*
X143786666Y-73648761D01*
X143786666Y-73648761D02*
X143691428Y-73696380D01*
X143691428Y-73696380D02*
X143405714Y-73696380D01*
X143405714Y-73696380D02*
X143310476Y-73648761D01*
X143310476Y-73648761D02*
X143262857Y-73601142D01*
X144167619Y-72696380D02*
X144500952Y-73696380D01*
X144500952Y-73696380D02*
X144834285Y-72696380D01*
X145072381Y-72696380D02*
X145691428Y-72696380D01*
X145691428Y-72696380D02*
X145358095Y-73077333D01*
X145358095Y-73077333D02*
X145500952Y-73077333D01*
X145500952Y-73077333D02*
X145596190Y-73124952D01*
X145596190Y-73124952D02*
X145643809Y-73172571D01*
X145643809Y-73172571D02*
X145691428Y-73267809D01*
X145691428Y-73267809D02*
X145691428Y-73505904D01*
X145691428Y-73505904D02*
X145643809Y-73601142D01*
X145643809Y-73601142D02*
X145596190Y-73648761D01*
X145596190Y-73648761D02*
X145500952Y-73696380D01*
X145500952Y-73696380D02*
X145215238Y-73696380D01*
X145215238Y-73696380D02*
X145120000Y-73648761D01*
X145120000Y-73648761D02*
X145072381Y-73601142D01*
X155438952Y-73124952D02*
X155343714Y-73077333D01*
X155343714Y-73077333D02*
X155296095Y-73029714D01*
X155296095Y-73029714D02*
X155248476Y-72934476D01*
X155248476Y-72934476D02*
X155248476Y-72886857D01*
X155248476Y-72886857D02*
X155296095Y-72791619D01*
X155296095Y-72791619D02*
X155343714Y-72744000D01*
X155343714Y-72744000D02*
X155438952Y-72696380D01*
X155438952Y-72696380D02*
X155629428Y-72696380D01*
X155629428Y-72696380D02*
X155724666Y-72744000D01*
X155724666Y-72744000D02*
X155772285Y-72791619D01*
X155772285Y-72791619D02*
X155819904Y-72886857D01*
X155819904Y-72886857D02*
X155819904Y-72934476D01*
X155819904Y-72934476D02*
X155772285Y-73029714D01*
X155772285Y-73029714D02*
X155724666Y-73077333D01*
X155724666Y-73077333D02*
X155629428Y-73124952D01*
X155629428Y-73124952D02*
X155438952Y-73124952D01*
X155438952Y-73124952D02*
X155343714Y-73172571D01*
X155343714Y-73172571D02*
X155296095Y-73220190D01*
X155296095Y-73220190D02*
X155248476Y-73315428D01*
X155248476Y-73315428D02*
X155248476Y-73505904D01*
X155248476Y-73505904D02*
X155296095Y-73601142D01*
X155296095Y-73601142D02*
X155343714Y-73648761D01*
X155343714Y-73648761D02*
X155438952Y-73696380D01*
X155438952Y-73696380D02*
X155629428Y-73696380D01*
X155629428Y-73696380D02*
X155724666Y-73648761D01*
X155724666Y-73648761D02*
X155772285Y-73601142D01*
X155772285Y-73601142D02*
X155819904Y-73505904D01*
X155819904Y-73505904D02*
X155819904Y-73315428D01*
X155819904Y-73315428D02*
X155772285Y-73220190D01*
X155772285Y-73220190D02*
X155724666Y-73172571D01*
X155724666Y-73172571D02*
X155629428Y-73124952D01*
X155724666Y-77776380D02*
X155534190Y-77776380D01*
X155534190Y-77776380D02*
X155438952Y-77824000D01*
X155438952Y-77824000D02*
X155391333Y-77871619D01*
X155391333Y-77871619D02*
X155296095Y-78014476D01*
X155296095Y-78014476D02*
X155248476Y-78204952D01*
X155248476Y-78204952D02*
X155248476Y-78585904D01*
X155248476Y-78585904D02*
X155296095Y-78681142D01*
X155296095Y-78681142D02*
X155343714Y-78728761D01*
X155343714Y-78728761D02*
X155438952Y-78776380D01*
X155438952Y-78776380D02*
X155629428Y-78776380D01*
X155629428Y-78776380D02*
X155724666Y-78728761D01*
X155724666Y-78728761D02*
X155772285Y-78681142D01*
X155772285Y-78681142D02*
X155819904Y-78585904D01*
X155819904Y-78585904D02*
X155819904Y-78347809D01*
X155819904Y-78347809D02*
X155772285Y-78252571D01*
X155772285Y-78252571D02*
X155724666Y-78204952D01*
X155724666Y-78204952D02*
X155629428Y-78157333D01*
X155629428Y-78157333D02*
X155438952Y-78157333D01*
X155438952Y-78157333D02*
X155343714Y-78204952D01*
X155343714Y-78204952D02*
X155296095Y-78252571D01*
X155296095Y-78252571D02*
X155248476Y-78347809D01*
X143199524Y-78474761D02*
X143342381Y-78522380D01*
X143342381Y-78522380D02*
X143580476Y-78522380D01*
X143580476Y-78522380D02*
X143675714Y-78474761D01*
X143675714Y-78474761D02*
X143723333Y-78427142D01*
X143723333Y-78427142D02*
X143770952Y-78331904D01*
X143770952Y-78331904D02*
X143770952Y-78236666D01*
X143770952Y-78236666D02*
X143723333Y-78141428D01*
X143723333Y-78141428D02*
X143675714Y-78093809D01*
X143675714Y-78093809D02*
X143580476Y-78046190D01*
X143580476Y-78046190D02*
X143390000Y-77998571D01*
X143390000Y-77998571D02*
X143294762Y-77950952D01*
X143294762Y-77950952D02*
X143247143Y-77903333D01*
X143247143Y-77903333D02*
X143199524Y-77808095D01*
X143199524Y-77808095D02*
X143199524Y-77712857D01*
X143199524Y-77712857D02*
X143247143Y-77617619D01*
X143247143Y-77617619D02*
X143294762Y-77570000D01*
X143294762Y-77570000D02*
X143390000Y-77522380D01*
X143390000Y-77522380D02*
X143628095Y-77522380D01*
X143628095Y-77522380D02*
X143770952Y-77570000D01*
X144770952Y-78427142D02*
X144723333Y-78474761D01*
X144723333Y-78474761D02*
X144580476Y-78522380D01*
X144580476Y-78522380D02*
X144485238Y-78522380D01*
X144485238Y-78522380D02*
X144342381Y-78474761D01*
X144342381Y-78474761D02*
X144247143Y-78379523D01*
X144247143Y-78379523D02*
X144199524Y-78284285D01*
X144199524Y-78284285D02*
X144151905Y-78093809D01*
X144151905Y-78093809D02*
X144151905Y-77950952D01*
X144151905Y-77950952D02*
X144199524Y-77760476D01*
X144199524Y-77760476D02*
X144247143Y-77665238D01*
X144247143Y-77665238D02*
X144342381Y-77570000D01*
X144342381Y-77570000D02*
X144485238Y-77522380D01*
X144485238Y-77522380D02*
X144580476Y-77522380D01*
X144580476Y-77522380D02*
X144723333Y-77570000D01*
X144723333Y-77570000D02*
X144770952Y-77617619D01*
X145675714Y-78522380D02*
X145199524Y-78522380D01*
X145199524Y-78522380D02*
X145199524Y-77522380D01*
X155343714Y-71156380D02*
X155534190Y-71156380D01*
X155534190Y-71156380D02*
X155629428Y-71108761D01*
X155629428Y-71108761D02*
X155677047Y-71061142D01*
X155677047Y-71061142D02*
X155772285Y-70918285D01*
X155772285Y-70918285D02*
X155819904Y-70727809D01*
X155819904Y-70727809D02*
X155819904Y-70346857D01*
X155819904Y-70346857D02*
X155772285Y-70251619D01*
X155772285Y-70251619D02*
X155724666Y-70204000D01*
X155724666Y-70204000D02*
X155629428Y-70156380D01*
X155629428Y-70156380D02*
X155438952Y-70156380D01*
X155438952Y-70156380D02*
X155343714Y-70204000D01*
X155343714Y-70204000D02*
X155296095Y-70251619D01*
X155296095Y-70251619D02*
X155248476Y-70346857D01*
X155248476Y-70346857D02*
X155248476Y-70584952D01*
X155248476Y-70584952D02*
X155296095Y-70680190D01*
X155296095Y-70680190D02*
X155343714Y-70727809D01*
X155343714Y-70727809D02*
X155438952Y-70775428D01*
X155438952Y-70775428D02*
X155629428Y-70775428D01*
X155629428Y-70775428D02*
X155724666Y-70727809D01*
X155724666Y-70727809D02*
X155772285Y-70680190D01*
X155772285Y-70680190D02*
X155819904Y-70584952D01*
X155232571Y-93016380D02*
X155327809Y-93016380D01*
X155327809Y-93016380D02*
X155423047Y-93064000D01*
X155423047Y-93064000D02*
X155470666Y-93111619D01*
X155470666Y-93111619D02*
X155518285Y-93206857D01*
X155518285Y-93206857D02*
X155565904Y-93397333D01*
X155565904Y-93397333D02*
X155565904Y-93635428D01*
X155565904Y-93635428D02*
X155518285Y-93825904D01*
X155518285Y-93825904D02*
X155470666Y-93921142D01*
X155470666Y-93921142D02*
X155423047Y-93968761D01*
X155423047Y-93968761D02*
X155327809Y-94016380D01*
X155327809Y-94016380D02*
X155232571Y-94016380D01*
X155232571Y-94016380D02*
X155137333Y-93968761D01*
X155137333Y-93968761D02*
X155089714Y-93921142D01*
X155089714Y-93921142D02*
X155042095Y-93825904D01*
X155042095Y-93825904D02*
X154994476Y-93635428D01*
X154994476Y-93635428D02*
X154994476Y-93397333D01*
X154994476Y-93397333D02*
X155042095Y-93206857D01*
X155042095Y-93206857D02*
X155089714Y-93111619D01*
X155089714Y-93111619D02*
X155137333Y-93064000D01*
X155137333Y-93064000D02*
X155232571Y-93016380D01*
X155200857Y-85396380D02*
X155819904Y-85396380D01*
X155819904Y-85396380D02*
X155486571Y-85777333D01*
X155486571Y-85777333D02*
X155629428Y-85777333D01*
X155629428Y-85777333D02*
X155724666Y-85824952D01*
X155724666Y-85824952D02*
X155772285Y-85872571D01*
X155772285Y-85872571D02*
X155819904Y-85967809D01*
X155819904Y-85967809D02*
X155819904Y-86205904D01*
X155819904Y-86205904D02*
X155772285Y-86301142D01*
X155772285Y-86301142D02*
X155724666Y-86348761D01*
X155724666Y-86348761D02*
X155629428Y-86396380D01*
X155629428Y-86396380D02*
X155343714Y-86396380D01*
X155343714Y-86396380D02*
X155248476Y-86348761D01*
X155248476Y-86348761D02*
X155200857Y-86301142D01*
X154803904Y-68362380D02*
X154232476Y-68362380D01*
X154518190Y-68362380D02*
X154518190Y-67362380D01*
X154518190Y-67362380D02*
X154422952Y-67505238D01*
X154422952Y-67505238D02*
X154327714Y-67600476D01*
X154327714Y-67600476D02*
X154232476Y-67648095D01*
X155422952Y-67362380D02*
X155518190Y-67362380D01*
X155518190Y-67362380D02*
X155613428Y-67410000D01*
X155613428Y-67410000D02*
X155661047Y-67457619D01*
X155661047Y-67457619D02*
X155708666Y-67552857D01*
X155708666Y-67552857D02*
X155756285Y-67743333D01*
X155756285Y-67743333D02*
X155756285Y-67981428D01*
X155756285Y-67981428D02*
X155708666Y-68171904D01*
X155708666Y-68171904D02*
X155661047Y-68267142D01*
X155661047Y-68267142D02*
X155613428Y-68314761D01*
X155613428Y-68314761D02*
X155518190Y-68362380D01*
X155518190Y-68362380D02*
X155422952Y-68362380D01*
X155422952Y-68362380D02*
X155327714Y-68314761D01*
X155327714Y-68314761D02*
X155280095Y-68267142D01*
X155280095Y-68267142D02*
X155232476Y-68171904D01*
X155232476Y-68171904D02*
X155184857Y-67981428D01*
X155184857Y-67981428D02*
X155184857Y-67743333D01*
X155184857Y-67743333D02*
X155232476Y-67552857D01*
X155232476Y-67552857D02*
X155280095Y-67457619D01*
X155280095Y-67457619D02*
X155327714Y-67410000D01*
X155327714Y-67410000D02*
X155422952Y-67362380D01*
X155248476Y-88031619D02*
X155296095Y-87984000D01*
X155296095Y-87984000D02*
X155391333Y-87936380D01*
X155391333Y-87936380D02*
X155629428Y-87936380D01*
X155629428Y-87936380D02*
X155724666Y-87984000D01*
X155724666Y-87984000D02*
X155772285Y-88031619D01*
X155772285Y-88031619D02*
X155819904Y-88126857D01*
X155819904Y-88126857D02*
X155819904Y-88222095D01*
X155819904Y-88222095D02*
X155772285Y-88364952D01*
X155772285Y-88364952D02*
X155200857Y-88936380D01*
X155200857Y-88936380D02*
X155819904Y-88936380D01*
X155772285Y-80316380D02*
X155296095Y-80316380D01*
X155296095Y-80316380D02*
X155248476Y-80792571D01*
X155248476Y-80792571D02*
X155296095Y-80744952D01*
X155296095Y-80744952D02*
X155391333Y-80697333D01*
X155391333Y-80697333D02*
X155629428Y-80697333D01*
X155629428Y-80697333D02*
X155724666Y-80744952D01*
X155724666Y-80744952D02*
X155772285Y-80792571D01*
X155772285Y-80792571D02*
X155819904Y-80887809D01*
X155819904Y-80887809D02*
X155819904Y-81125904D01*
X155819904Y-81125904D02*
X155772285Y-81221142D01*
X155772285Y-81221142D02*
X155724666Y-81268761D01*
X155724666Y-81268761D02*
X155629428Y-81316380D01*
X155629428Y-81316380D02*
X155391333Y-81316380D01*
X155391333Y-81316380D02*
X155296095Y-81268761D01*
X155296095Y-81268761D02*
X155248476Y-81221142D01*
X143373904Y-85444000D02*
X143278666Y-85396380D01*
X143278666Y-85396380D02*
X143135809Y-85396380D01*
X143135809Y-85396380D02*
X142992952Y-85444000D01*
X142992952Y-85444000D02*
X142897714Y-85539238D01*
X142897714Y-85539238D02*
X142850095Y-85634476D01*
X142850095Y-85634476D02*
X142802476Y-85824952D01*
X142802476Y-85824952D02*
X142802476Y-85967809D01*
X142802476Y-85967809D02*
X142850095Y-86158285D01*
X142850095Y-86158285D02*
X142897714Y-86253523D01*
X142897714Y-86253523D02*
X142992952Y-86348761D01*
X142992952Y-86348761D02*
X143135809Y-86396380D01*
X143135809Y-86396380D02*
X143231047Y-86396380D01*
X143231047Y-86396380D02*
X143373904Y-86348761D01*
X143373904Y-86348761D02*
X143421523Y-86301142D01*
X143421523Y-86301142D02*
X143421523Y-85967809D01*
X143421523Y-85967809D02*
X143231047Y-85967809D01*
X143850095Y-86396380D02*
X143850095Y-85396380D01*
X143850095Y-85396380D02*
X144421523Y-86396380D01*
X144421523Y-86396380D02*
X144421523Y-85396380D01*
X144897714Y-86396380D02*
X144897714Y-85396380D01*
X144897714Y-85396380D02*
X145135809Y-85396380D01*
X145135809Y-85396380D02*
X145278666Y-85444000D01*
X145278666Y-85444000D02*
X145373904Y-85539238D01*
X145373904Y-85539238D02*
X145421523Y-85634476D01*
X145421523Y-85634476D02*
X145469142Y-85824952D01*
X145469142Y-85824952D02*
X145469142Y-85967809D01*
X145469142Y-85967809D02*
X145421523Y-86158285D01*
X145421523Y-86158285D02*
X145373904Y-86253523D01*
X145373904Y-86253523D02*
X145278666Y-86348761D01*
X145278666Y-86348761D02*
X145135809Y-86396380D01*
X145135809Y-86396380D02*
X144897714Y-86396380D01*
X155819904Y-91222380D02*
X155248476Y-91222380D01*
X155534190Y-91222380D02*
X155534190Y-90222380D01*
X155534190Y-90222380D02*
X155438952Y-90365238D01*
X155438952Y-90365238D02*
X155343714Y-90460476D01*
X155343714Y-90460476D02*
X155248476Y-90508095D01*
X155724666Y-83189714D02*
X155724666Y-83856380D01*
X155486571Y-82808761D02*
X155248476Y-83523047D01*
X155248476Y-83523047D02*
X155867523Y-83523047D01*
X154803904Y-66076380D02*
X154232476Y-66076380D01*
X154518190Y-66076380D02*
X154518190Y-65076380D01*
X154518190Y-65076380D02*
X154422952Y-65219238D01*
X154422952Y-65219238D02*
X154327714Y-65314476D01*
X154327714Y-65314476D02*
X154232476Y-65362095D01*
X155756285Y-66076380D02*
X155184857Y-66076380D01*
X155470571Y-66076380D02*
X155470571Y-65076380D01*
X155470571Y-65076380D02*
X155375333Y-65219238D01*
X155375333Y-65219238D02*
X155280095Y-65314476D01*
X155280095Y-65314476D02*
X155184857Y-65362095D01*
X155200857Y-75236380D02*
X155867523Y-75236380D01*
X155867523Y-75236380D02*
X155438952Y-76236380D01*
X143056476Y-83570666D02*
X143532666Y-83570666D01*
X142961238Y-83856380D02*
X143294571Y-82856380D01*
X143294571Y-82856380D02*
X143627904Y-83856380D01*
X143961238Y-83856380D02*
X143961238Y-82856380D01*
X143961238Y-82856380D02*
X144199333Y-82856380D01*
X144199333Y-82856380D02*
X144342190Y-82904000D01*
X144342190Y-82904000D02*
X144437428Y-82999238D01*
X144437428Y-82999238D02*
X144485047Y-83094476D01*
X144485047Y-83094476D02*
X144532666Y-83284952D01*
X144532666Y-83284952D02*
X144532666Y-83427809D01*
X144532666Y-83427809D02*
X144485047Y-83618285D01*
X144485047Y-83618285D02*
X144437428Y-83713523D01*
X144437428Y-83713523D02*
X144342190Y-83808761D01*
X144342190Y-83808761D02*
X144199333Y-83856380D01*
X144199333Y-83856380D02*
X143961238Y-83856380D01*
X144961238Y-83856380D02*
X144961238Y-82856380D01*
X144961238Y-82856380D02*
X145199333Y-82856380D01*
X145199333Y-82856380D02*
X145342190Y-82904000D01*
X145342190Y-82904000D02*
X145437428Y-82999238D01*
X145437428Y-82999238D02*
X145485047Y-83094476D01*
X145485047Y-83094476D02*
X145532666Y-83284952D01*
X145532666Y-83284952D02*
X145532666Y-83427809D01*
X145532666Y-83427809D02*
X145485047Y-83618285D01*
X145485047Y-83618285D02*
X145437428Y-83713523D01*
X145437428Y-83713523D02*
X145342190Y-83808761D01*
X145342190Y-83808761D02*
X145199333Y-83856380D01*
X145199333Y-83856380D02*
X144961238Y-83856380D01*
X143358095Y-76236380D02*
X143358095Y-75236380D01*
X144405713Y-76236380D02*
X144072380Y-75760190D01*
X143834285Y-76236380D02*
X143834285Y-75236380D01*
X143834285Y-75236380D02*
X144215237Y-75236380D01*
X144215237Y-75236380D02*
X144310475Y-75284000D01*
X144310475Y-75284000D02*
X144358094Y-75331619D01*
X144358094Y-75331619D02*
X144405713Y-75426857D01*
X144405713Y-75426857D02*
X144405713Y-75569714D01*
X144405713Y-75569714D02*
X144358094Y-75664952D01*
X144358094Y-75664952D02*
X144310475Y-75712571D01*
X144310475Y-75712571D02*
X144215237Y-75760190D01*
X144215237Y-75760190D02*
X143834285Y-75760190D01*
X145500951Y-76331619D02*
X145405713Y-76284000D01*
X145405713Y-76284000D02*
X145310475Y-76188761D01*
X145310475Y-76188761D02*
X145167618Y-76045904D01*
X145167618Y-76045904D02*
X145072380Y-75998285D01*
X145072380Y-75998285D02*
X144977142Y-75998285D01*
X145024761Y-76236380D02*
X144929523Y-76188761D01*
X144929523Y-76188761D02*
X144834285Y-76093523D01*
X144834285Y-76093523D02*
X144786666Y-75903047D01*
X144786666Y-75903047D02*
X144786666Y-75569714D01*
X144786666Y-75569714D02*
X144834285Y-75379238D01*
X144834285Y-75379238D02*
X144929523Y-75284000D01*
X144929523Y-75284000D02*
X145024761Y-75236380D01*
X145024761Y-75236380D02*
X145215237Y-75236380D01*
X145215237Y-75236380D02*
X145310475Y-75284000D01*
X145310475Y-75284000D02*
X145405713Y-75379238D01*
X145405713Y-75379238D02*
X145453332Y-75569714D01*
X145453332Y-75569714D02*
X145453332Y-75903047D01*
X145453332Y-75903047D02*
X145405713Y-76093523D01*
X145405713Y-76093523D02*
X145310475Y-76188761D01*
X145310475Y-76188761D02*
X145215237Y-76236380D01*
X145215237Y-76236380D02*
X145024761Y-76236380D01*
D10*
%TO.C,J8*%
X135892380Y-71453333D02*
X136606666Y-71453333D01*
X136606666Y-71453333D02*
X136749523Y-71500952D01*
X136749523Y-71500952D02*
X136844761Y-71596190D01*
X136844761Y-71596190D02*
X136892380Y-71739047D01*
X136892380Y-71739047D02*
X136892380Y-71834285D01*
X136320952Y-70834285D02*
X136273333Y-70929523D01*
X136273333Y-70929523D02*
X136225714Y-70977142D01*
X136225714Y-70977142D02*
X136130476Y-71024761D01*
X136130476Y-71024761D02*
X136082857Y-71024761D01*
X136082857Y-71024761D02*
X135987619Y-70977142D01*
X135987619Y-70977142D02*
X135940000Y-70929523D01*
X135940000Y-70929523D02*
X135892380Y-70834285D01*
X135892380Y-70834285D02*
X135892380Y-70643809D01*
X135892380Y-70643809D02*
X135940000Y-70548571D01*
X135940000Y-70548571D02*
X135987619Y-70500952D01*
X135987619Y-70500952D02*
X136082857Y-70453333D01*
X136082857Y-70453333D02*
X136130476Y-70453333D01*
X136130476Y-70453333D02*
X136225714Y-70500952D01*
X136225714Y-70500952D02*
X136273333Y-70548571D01*
X136273333Y-70548571D02*
X136320952Y-70643809D01*
X136320952Y-70643809D02*
X136320952Y-70834285D01*
X136320952Y-70834285D02*
X136368571Y-70929523D01*
X136368571Y-70929523D02*
X136416190Y-70977142D01*
X136416190Y-70977142D02*
X136511428Y-71024761D01*
X136511428Y-71024761D02*
X136701904Y-71024761D01*
X136701904Y-71024761D02*
X136797142Y-70977142D01*
X136797142Y-70977142D02*
X136844761Y-70929523D01*
X136844761Y-70929523D02*
X136892380Y-70834285D01*
X136892380Y-70834285D02*
X136892380Y-70643809D01*
X136892380Y-70643809D02*
X136844761Y-70548571D01*
X136844761Y-70548571D02*
X136797142Y-70500952D01*
X136797142Y-70500952D02*
X136701904Y-70453333D01*
X136701904Y-70453333D02*
X136511428Y-70453333D01*
X136511428Y-70453333D02*
X136416190Y-70500952D01*
X136416190Y-70500952D02*
X136368571Y-70548571D01*
X136368571Y-70548571D02*
X136320952Y-70643809D01*
%TO.C,J6*%
X116842380Y-91773333D02*
X117556666Y-91773333D01*
X117556666Y-91773333D02*
X117699523Y-91820952D01*
X117699523Y-91820952D02*
X117794761Y-91916190D01*
X117794761Y-91916190D02*
X117842380Y-92059047D01*
X117842380Y-92059047D02*
X117842380Y-92154285D01*
X116842380Y-90868571D02*
X116842380Y-91059047D01*
X116842380Y-91059047D02*
X116890000Y-91154285D01*
X116890000Y-91154285D02*
X116937619Y-91201904D01*
X116937619Y-91201904D02*
X117080476Y-91297142D01*
X117080476Y-91297142D02*
X117270952Y-91344761D01*
X117270952Y-91344761D02*
X117651904Y-91344761D01*
X117651904Y-91344761D02*
X117747142Y-91297142D01*
X117747142Y-91297142D02*
X117794761Y-91249523D01*
X117794761Y-91249523D02*
X117842380Y-91154285D01*
X117842380Y-91154285D02*
X117842380Y-90963809D01*
X117842380Y-90963809D02*
X117794761Y-90868571D01*
X117794761Y-90868571D02*
X117747142Y-90820952D01*
X117747142Y-90820952D02*
X117651904Y-90773333D01*
X117651904Y-90773333D02*
X117413809Y-90773333D01*
X117413809Y-90773333D02*
X117318571Y-90820952D01*
X117318571Y-90820952D02*
X117270952Y-90868571D01*
X117270952Y-90868571D02*
X117223333Y-90963809D01*
X117223333Y-90963809D02*
X117223333Y-91154285D01*
X117223333Y-91154285D02*
X117270952Y-91249523D01*
X117270952Y-91249523D02*
X117318571Y-91297142D01*
X117318571Y-91297142D02*
X117413809Y-91344761D01*
%TO.C,J3*%
X116842380Y-84788333D02*
X117556666Y-84788333D01*
X117556666Y-84788333D02*
X117699523Y-84835952D01*
X117699523Y-84835952D02*
X117794761Y-84931190D01*
X117794761Y-84931190D02*
X117842380Y-85074047D01*
X117842380Y-85074047D02*
X117842380Y-85169285D01*
X116842380Y-84407380D02*
X116842380Y-83788333D01*
X116842380Y-83788333D02*
X117223333Y-84121666D01*
X117223333Y-84121666D02*
X117223333Y-83978809D01*
X117223333Y-83978809D02*
X117270952Y-83883571D01*
X117270952Y-83883571D02*
X117318571Y-83835952D01*
X117318571Y-83835952D02*
X117413809Y-83788333D01*
X117413809Y-83788333D02*
X117651904Y-83788333D01*
X117651904Y-83788333D02*
X117747142Y-83835952D01*
X117747142Y-83835952D02*
X117794761Y-83883571D01*
X117794761Y-83883571D02*
X117842380Y-83978809D01*
X117842380Y-83978809D02*
X117842380Y-84264523D01*
X117842380Y-84264523D02*
X117794761Y-84359761D01*
X117794761Y-84359761D02*
X117747142Y-84407380D01*
%TO.C,J2*%
X116842380Y-76533333D02*
X117556666Y-76533333D01*
X117556666Y-76533333D02*
X117699523Y-76580952D01*
X117699523Y-76580952D02*
X117794761Y-76676190D01*
X117794761Y-76676190D02*
X117842380Y-76819047D01*
X117842380Y-76819047D02*
X117842380Y-76914285D01*
X116937619Y-76104761D02*
X116890000Y-76057142D01*
X116890000Y-76057142D02*
X116842380Y-75961904D01*
X116842380Y-75961904D02*
X116842380Y-75723809D01*
X116842380Y-75723809D02*
X116890000Y-75628571D01*
X116890000Y-75628571D02*
X116937619Y-75580952D01*
X116937619Y-75580952D02*
X117032857Y-75533333D01*
X117032857Y-75533333D02*
X117128095Y-75533333D01*
X117128095Y-75533333D02*
X117270952Y-75580952D01*
X117270952Y-75580952D02*
X117842380Y-76152380D01*
X117842380Y-76152380D02*
X117842380Y-75533333D01*
%TO.C,J3*%
X169116630Y-63833333D02*
X169830916Y-63833333D01*
X169830916Y-63833333D02*
X169973773Y-63880952D01*
X169973773Y-63880952D02*
X170069011Y-63976190D01*
X170069011Y-63976190D02*
X170116630Y-64119047D01*
X170116630Y-64119047D02*
X170116630Y-64214285D01*
X169116630Y-63452380D02*
X169116630Y-62833333D01*
X169116630Y-62833333D02*
X169497583Y-63166666D01*
X169497583Y-63166666D02*
X169497583Y-63023809D01*
X169497583Y-63023809D02*
X169545202Y-62928571D01*
X169545202Y-62928571D02*
X169592821Y-62880952D01*
X169592821Y-62880952D02*
X169688059Y-62833333D01*
X169688059Y-62833333D02*
X169926154Y-62833333D01*
X169926154Y-62833333D02*
X170021392Y-62880952D01*
X170021392Y-62880952D02*
X170069011Y-62928571D01*
X170069011Y-62928571D02*
X170116630Y-63023809D01*
X170116630Y-63023809D02*
X170116630Y-63309523D01*
X170116630Y-63309523D02*
X170069011Y-63404761D01*
X170069011Y-63404761D02*
X170021392Y-63452380D01*
%TO.C,J2*%
X165306630Y-63833333D02*
X166020916Y-63833333D01*
X166020916Y-63833333D02*
X166163773Y-63880952D01*
X166163773Y-63880952D02*
X166259011Y-63976190D01*
X166259011Y-63976190D02*
X166306630Y-64119047D01*
X166306630Y-64119047D02*
X166306630Y-64214285D01*
X165401869Y-63404761D02*
X165354250Y-63357142D01*
X165354250Y-63357142D02*
X165306630Y-63261904D01*
X165306630Y-63261904D02*
X165306630Y-63023809D01*
X165306630Y-63023809D02*
X165354250Y-62928571D01*
X165354250Y-62928571D02*
X165401869Y-62880952D01*
X165401869Y-62880952D02*
X165497107Y-62833333D01*
X165497107Y-62833333D02*
X165592345Y-62833333D01*
X165592345Y-62833333D02*
X165735202Y-62880952D01*
X165735202Y-62880952D02*
X166306630Y-63452380D01*
X166306630Y-63452380D02*
X166306630Y-62833333D01*
%TO.C,J1*%
X116842380Y-68913333D02*
X117556666Y-68913333D01*
X117556666Y-68913333D02*
X117699523Y-68960952D01*
X117699523Y-68960952D02*
X117794761Y-69056190D01*
X117794761Y-69056190D02*
X117842380Y-69199047D01*
X117842380Y-69199047D02*
X117842380Y-69294285D01*
X117842380Y-67913333D02*
X117842380Y-68484761D01*
X117842380Y-68199047D02*
X116842380Y-68199047D01*
X116842380Y-68199047D02*
X116985238Y-68294285D01*
X116985238Y-68294285D02*
X117080476Y-68389523D01*
X117080476Y-68389523D02*
X117128095Y-68484761D01*
D12*
%TO.C,J7*%
X133180000Y-92940000D02*
X125900000Y-92940000D01*
X133180000Y-89940000D02*
X133180000Y-92940000D01*
X130810000Y-92940000D02*
X130810000Y-89940000D01*
X125900000Y-92940000D02*
X125900000Y-89940000D01*
X125900000Y-89940000D02*
X133180000Y-89940000D01*
%TO.C,U1*%
X159466000Y-64282000D02*
X152632666Y-64282000D01*
X152632666Y-64282000D02*
X152632666Y-64642000D01*
X145799334Y-64282000D02*
X138966001Y-64282000D01*
X138966001Y-64282000D02*
X138966000Y-94722000D01*
X152632666Y-64642000D02*
X145799334Y-64642000D01*
X145799334Y-64642000D02*
X145799334Y-64282000D01*
X159465999Y-94722000D02*
X159466000Y-64282000D01*
X138966000Y-94722000D02*
X159465999Y-94722000D01*
%TO.C,J8*%
X137390000Y-64940000D02*
X137390000Y-69680000D01*
X134390000Y-64940000D02*
X137390000Y-64940000D01*
X137390000Y-67310000D02*
X134390000Y-67310000D01*
X137390000Y-69680000D02*
X134390000Y-69680000D01*
X134390000Y-69680000D02*
X134390000Y-64940000D01*
%TO.C,J6*%
X125560000Y-92940000D02*
X118280000Y-92940000D01*
X125560000Y-89940000D02*
X125560000Y-92940000D01*
X123190000Y-92940000D02*
X123190000Y-89940000D01*
X118280000Y-92940000D02*
X118280000Y-89940000D01*
X118280000Y-89940000D02*
X125560000Y-89940000D01*
%TO.C,J3*%
X118280000Y-82320000D02*
X128100000Y-82320000D01*
X118280000Y-85320000D02*
X118280000Y-82320000D01*
X120650000Y-82320000D02*
X120650000Y-85320000D01*
X128100000Y-82320000D02*
X128100000Y-85320000D01*
X128100000Y-85320000D02*
X118280000Y-85320000D01*
%TO.C,J2*%
X118280000Y-74700000D02*
X133180000Y-74700000D01*
X118280000Y-77700000D02*
X118280000Y-74700000D01*
X120650000Y-74700000D02*
X120650000Y-77700000D01*
X133180000Y-74700000D02*
X133180000Y-77700000D01*
X133180000Y-77700000D02*
X118280000Y-77700000D01*
%TO.C,J3*%
X167741250Y-94572000D02*
X167741250Y-64432000D01*
X170741250Y-94572000D02*
X167741250Y-94572000D01*
X167741250Y-92202000D02*
X170741250Y-92202000D01*
X167741250Y-64432000D02*
X170741250Y-64432000D01*
X170741250Y-64432000D02*
X170741250Y-94572000D01*
%TO.C,J2*%
X164693250Y-94572000D02*
X164693250Y-64432000D01*
X167693250Y-94572000D02*
X164693250Y-94572000D01*
X164693250Y-92202000D02*
X167693250Y-92202000D01*
X164693250Y-64432000D02*
X167693250Y-64432000D01*
X167693250Y-64432000D02*
X167693250Y-94572000D01*
%TO.C,J1*%
X118280000Y-67080000D02*
X133180000Y-67080000D01*
X118280000Y-70080000D02*
X118280000Y-67080000D01*
X120650000Y-67080000D02*
X120650000Y-70080000D01*
X133180000Y-67080000D02*
X133180000Y-70080000D01*
X133180000Y-70080000D02*
X118280000Y-70080000D01*
%TD*%
M02*
