%TF.GenerationSoftware,KiCad,Pcbnew,(7.0.0)*%
%TF.CreationDate,2023-03-31T02:03:59+02:00*%
%TF.ProjectId,HM-PlateauUtilisateur,484d2d50-6c61-4746-9561-755574696c69,rev?*%
%TF.SameCoordinates,Original*%
%TF.FileFunction,Soldermask,Bot*%
%TF.FilePolarity,Negative*%
%FSLAX46Y46*%
G04 Gerber Fmt 4.6, Leading zero omitted, Abs format (unit mm)*
G04 Created by KiCad (PCBNEW (7.0.0)) date 2023-03-31 02:03:59*
%MOMM*%
%LPD*%
G01*
G04 APERTURE LIST*
%ADD10O,1.200000X2.000000*%
%ADD11O,2.500000X1.500000*%
%ADD12O,2.000000X1.200000*%
G04 APERTURE END LIST*
D10*
%TO.C,J7*%
X132079999Y-91439999D03*
X129539999Y-91439999D03*
X126999999Y-91439999D03*
%TD*%
D11*
%TO.C,U1*%
X140715999Y-73151999D03*
X140715999Y-75691999D03*
X140715999Y-78231999D03*
X140715999Y-80771999D03*
X140715999Y-83311999D03*
X140715999Y-85851999D03*
X157715999Y-93471999D03*
X157715999Y-90931999D03*
X157715999Y-88391999D03*
X157715999Y-85851999D03*
X157715999Y-83311999D03*
X157715999Y-80771999D03*
X157715999Y-78231999D03*
X157715999Y-75691999D03*
X157715999Y-73151999D03*
X157715999Y-70611999D03*
X157715999Y-68071999D03*
X157715999Y-65531999D03*
%TD*%
D12*
%TO.C,J8*%
X135889999Y-66039999D03*
X135889999Y-68579999D03*
%TD*%
D10*
%TO.C,J6*%
X124459999Y-91439999D03*
X121919999Y-91439999D03*
X119379999Y-91439999D03*
%TD*%
%TO.C,J3*%
X119379999Y-83819999D03*
X121919999Y-83819999D03*
X124459999Y-83819999D03*
X126999999Y-83819999D03*
%TD*%
%TO.C,J2*%
X119379999Y-76199999D03*
X121919999Y-76199999D03*
X124459999Y-76199999D03*
X126999999Y-76199999D03*
X129539999Y-76199999D03*
X132079999Y-76199999D03*
%TD*%
D12*
%TO.C,J3*%
X169241249Y-93471999D03*
X169241249Y-90931999D03*
X169241249Y-88391999D03*
X169241249Y-85851999D03*
X169241249Y-83311999D03*
X169241249Y-80771999D03*
X169241249Y-78231999D03*
X169241249Y-75691999D03*
X169241249Y-73151999D03*
X169241249Y-70611999D03*
X169241249Y-68071999D03*
X169241249Y-65531999D03*
%TD*%
%TO.C,J2*%
X166193249Y-93471999D03*
X166193249Y-90931999D03*
X166193249Y-88391999D03*
X166193249Y-85851999D03*
X166193249Y-83311999D03*
X166193249Y-80771999D03*
X166193249Y-78231999D03*
X166193249Y-75691999D03*
X166193249Y-73151999D03*
X166193249Y-70611999D03*
X166193249Y-68071999D03*
X166193249Y-65531999D03*
%TD*%
D10*
%TO.C,J1*%
X119379999Y-68579999D03*
X121919999Y-68579999D03*
X124459999Y-68579999D03*
X126999999Y-68579999D03*
X129539999Y-68579999D03*
X132079999Y-68579999D03*
%TD*%
M02*
