%TF.GenerationSoftware,KiCad,Pcbnew,(7.0.0)*%
%TF.CreationDate,2023-03-31T02:04:25+02:00*%
%TF.ProjectId,HM-PlateauUtilisateur,484d2d50-6c61-4746-9561-755574696c69,rev?*%
%TF.SameCoordinates,Original*%
%TF.FileFunction,Drillmap*%
%TF.FilePolarity,Positive*%
%FSLAX45Y45*%
G04 Gerber Fmt 4.5, Leading zero omitted, Abs format (unit mm)*
G04 Created by KiCad (PCBNEW (7.0.0)) date 2023-03-31 02:04:25*
%MOMM*%
%LPD*%
G01*
G04 APERTURE LIST*
%ADD10C,0.100000*%
%ADD11C,0.200000*%
G04 APERTURE END LIST*
D10*
X11430000Y-6096000D02*
X17526000Y-6096000D01*
X17526000Y-6096000D02*
X17526000Y-10033000D01*
X17526000Y-10033000D02*
X11430000Y-10033000D01*
X11430000Y-10033000D02*
X11430000Y-6096000D01*
D11*
X11672619Y-10331476D02*
X11672619Y-10131476D01*
X11672619Y-10131476D02*
X11720238Y-10131476D01*
X11720238Y-10131476D02*
X11748809Y-10141000D01*
X11748809Y-10141000D02*
X11767857Y-10160048D01*
X11767857Y-10160048D02*
X11777381Y-10179095D01*
X11777381Y-10179095D02*
X11786905Y-10217190D01*
X11786905Y-10217190D02*
X11786905Y-10245762D01*
X11786905Y-10245762D02*
X11777381Y-10283857D01*
X11777381Y-10283857D02*
X11767857Y-10302905D01*
X11767857Y-10302905D02*
X11748809Y-10321952D01*
X11748809Y-10321952D02*
X11720238Y-10331476D01*
X11720238Y-10331476D02*
X11672619Y-10331476D01*
X11872619Y-10331476D02*
X11872619Y-10198143D01*
X11872619Y-10236238D02*
X11882143Y-10217190D01*
X11882143Y-10217190D02*
X11891667Y-10207667D01*
X11891667Y-10207667D02*
X11910714Y-10198143D01*
X11910714Y-10198143D02*
X11929762Y-10198143D01*
X11996428Y-10331476D02*
X11996428Y-10198143D01*
X11996428Y-10131476D02*
X11986905Y-10141000D01*
X11986905Y-10141000D02*
X11996428Y-10150524D01*
X11996428Y-10150524D02*
X12005952Y-10141000D01*
X12005952Y-10141000D02*
X11996428Y-10131476D01*
X11996428Y-10131476D02*
X11996428Y-10150524D01*
X12120238Y-10331476D02*
X12101190Y-10321952D01*
X12101190Y-10321952D02*
X12091667Y-10302905D01*
X12091667Y-10302905D02*
X12091667Y-10131476D01*
X12225000Y-10331476D02*
X12205952Y-10321952D01*
X12205952Y-10321952D02*
X12196428Y-10302905D01*
X12196428Y-10302905D02*
X12196428Y-10131476D01*
X12421190Y-10331476D02*
X12421190Y-10131476D01*
X12421190Y-10131476D02*
X12487857Y-10274333D01*
X12487857Y-10274333D02*
X12554524Y-10131476D01*
X12554524Y-10131476D02*
X12554524Y-10331476D01*
X12735476Y-10331476D02*
X12735476Y-10226714D01*
X12735476Y-10226714D02*
X12725952Y-10207667D01*
X12725952Y-10207667D02*
X12706905Y-10198143D01*
X12706905Y-10198143D02*
X12668809Y-10198143D01*
X12668809Y-10198143D02*
X12649762Y-10207667D01*
X12735476Y-10321952D02*
X12716428Y-10331476D01*
X12716428Y-10331476D02*
X12668809Y-10331476D01*
X12668809Y-10331476D02*
X12649762Y-10321952D01*
X12649762Y-10321952D02*
X12640238Y-10302905D01*
X12640238Y-10302905D02*
X12640238Y-10283857D01*
X12640238Y-10283857D02*
X12649762Y-10264810D01*
X12649762Y-10264810D02*
X12668809Y-10255286D01*
X12668809Y-10255286D02*
X12716428Y-10255286D01*
X12716428Y-10255286D02*
X12735476Y-10245762D01*
X12830714Y-10198143D02*
X12830714Y-10398143D01*
X12830714Y-10207667D02*
X12849762Y-10198143D01*
X12849762Y-10198143D02*
X12887857Y-10198143D01*
X12887857Y-10198143D02*
X12906905Y-10207667D01*
X12906905Y-10207667D02*
X12916428Y-10217190D01*
X12916428Y-10217190D02*
X12925952Y-10236238D01*
X12925952Y-10236238D02*
X12925952Y-10293381D01*
X12925952Y-10293381D02*
X12916428Y-10312429D01*
X12916428Y-10312429D02*
X12906905Y-10321952D01*
X12906905Y-10321952D02*
X12887857Y-10331476D01*
X12887857Y-10331476D02*
X12849762Y-10331476D01*
X12849762Y-10331476D02*
X12830714Y-10321952D01*
X13011667Y-10312429D02*
X13021190Y-10321952D01*
X13021190Y-10321952D02*
X13011667Y-10331476D01*
X13011667Y-10331476D02*
X13002143Y-10321952D01*
X13002143Y-10321952D02*
X13011667Y-10312429D01*
X13011667Y-10312429D02*
X13011667Y-10331476D01*
X13011667Y-10207667D02*
X13021190Y-10217190D01*
X13021190Y-10217190D02*
X13011667Y-10226714D01*
X13011667Y-10226714D02*
X13002143Y-10217190D01*
X13002143Y-10217190D02*
X13011667Y-10207667D01*
X13011667Y-10207667D02*
X13011667Y-10226714D01*
M02*
