%TF.GenerationSoftware,KiCad,Pcbnew,(7.0.0)*%
%TF.CreationDate,2023-03-31T02:04:25+02:00*%
%TF.ProjectId,HM-PlateauUtilisateur,484d2d50-6c61-4746-9561-755574696c69,rev?*%
%TF.SameCoordinates,Original*%
%TF.FileFunction,Drillmap*%
%TF.FilePolarity,Positive*%
%FSLAX45Y45*%
G04 Gerber Fmt 4.5, Leading zero omitted, Abs format (unit mm)*
G04 Created by KiCad (PCBNEW (7.0.0)) date 2023-03-31 02:04:25*
%MOMM*%
%LPD*%
G01*
G04 APERTURE LIST*
%ADD10C,0.100000*%
%ADD11C,0.200000*%
%ADD12C,0.080000*%
G04 APERTURE END LIST*
D10*
X11430000Y-6096000D02*
X17526000Y-6096000D01*
X17526000Y-6096000D02*
X17526000Y-10033000D01*
X17526000Y-10033000D02*
X11430000Y-10033000D01*
X11430000Y-10033000D02*
X11430000Y-6096000D01*
D11*
D12*
X11898000Y-6818000D02*
X11978000Y-6898000D01*
X11978000Y-6818000D02*
X11898000Y-6898000D01*
X11898000Y-7580000D02*
X11978000Y-7660000D01*
X11978000Y-7580000D02*
X11898000Y-7660000D01*
X11898000Y-8342000D02*
X11978000Y-8422000D01*
X11978000Y-8342000D02*
X11898000Y-8422000D01*
X11898000Y-9104000D02*
X11978000Y-9184000D01*
X11978000Y-9104000D02*
X11898000Y-9184000D01*
X12152000Y-6818000D02*
X12232000Y-6898000D01*
X12232000Y-6818000D02*
X12152000Y-6898000D01*
X12152000Y-7580000D02*
X12232000Y-7660000D01*
X12232000Y-7580000D02*
X12152000Y-7660000D01*
X12152000Y-8342000D02*
X12232000Y-8422000D01*
X12232000Y-8342000D02*
X12152000Y-8422000D01*
X12152000Y-9104000D02*
X12232000Y-9184000D01*
X12232000Y-9104000D02*
X12152000Y-9184000D01*
X12406000Y-6818000D02*
X12486000Y-6898000D01*
X12486000Y-6818000D02*
X12406000Y-6898000D01*
X12406000Y-7580000D02*
X12486000Y-7660000D01*
X12486000Y-7580000D02*
X12406000Y-7660000D01*
X12406000Y-8342000D02*
X12486000Y-8422000D01*
X12486000Y-8342000D02*
X12406000Y-8422000D01*
X12406000Y-9104000D02*
X12486000Y-9184000D01*
X12486000Y-9104000D02*
X12406000Y-9184000D01*
X12660000Y-6818000D02*
X12740000Y-6898000D01*
X12740000Y-6818000D02*
X12660000Y-6898000D01*
X12660000Y-7580000D02*
X12740000Y-7660000D01*
X12740000Y-7580000D02*
X12660000Y-7660000D01*
X12660000Y-8342000D02*
X12740000Y-8422000D01*
X12740000Y-8342000D02*
X12660000Y-8422000D01*
X12660000Y-9104000D02*
X12740000Y-9184000D01*
X12740000Y-9104000D02*
X12660000Y-9184000D01*
X12914000Y-6818000D02*
X12994000Y-6898000D01*
X12994000Y-6818000D02*
X12914000Y-6898000D01*
X12914000Y-7580000D02*
X12994000Y-7660000D01*
X12994000Y-7580000D02*
X12914000Y-7660000D01*
X12914000Y-9104000D02*
X12994000Y-9184000D01*
X12994000Y-9104000D02*
X12914000Y-9184000D01*
X13168000Y-6818000D02*
X13248000Y-6898000D01*
X13248000Y-6818000D02*
X13168000Y-6898000D01*
X13168000Y-7580000D02*
X13248000Y-7660000D01*
X13248000Y-7580000D02*
X13168000Y-7660000D01*
X13168000Y-9104000D02*
X13248000Y-9184000D01*
X13248000Y-9104000D02*
X13168000Y-9184000D01*
X13549000Y-6564000D02*
X13629000Y-6644000D01*
X13629000Y-6564000D02*
X13549000Y-6644000D01*
X13549000Y-6818000D02*
X13629000Y-6898000D01*
X13629000Y-6818000D02*
X13549000Y-6898000D01*
X14031600Y-7275200D02*
X14111600Y-7355200D01*
X14111600Y-7275200D02*
X14031600Y-7355200D01*
X14031600Y-7529200D02*
X14111600Y-7609200D01*
X14111600Y-7529200D02*
X14031600Y-7609200D01*
X14031600Y-7783200D02*
X14111600Y-7863200D01*
X14111600Y-7783200D02*
X14031600Y-7863200D01*
X14031600Y-8037200D02*
X14111600Y-8117200D01*
X14111600Y-8037200D02*
X14031600Y-8117200D01*
X14031600Y-8291200D02*
X14111600Y-8371200D01*
X14111600Y-8291200D02*
X14031600Y-8371200D01*
X14031600Y-8545200D02*
X14111600Y-8625200D01*
X14111600Y-8545200D02*
X14031600Y-8625200D01*
X15731600Y-6513200D02*
X15811600Y-6593200D01*
X15811600Y-6513200D02*
X15731600Y-6593200D01*
X15731600Y-6767200D02*
X15811600Y-6847200D01*
X15811600Y-6767200D02*
X15731600Y-6847200D01*
X15731600Y-7021200D02*
X15811600Y-7101200D01*
X15811600Y-7021200D02*
X15731600Y-7101200D01*
X15731600Y-7275200D02*
X15811600Y-7355200D01*
X15811600Y-7275200D02*
X15731600Y-7355200D01*
X15731600Y-7529200D02*
X15811600Y-7609200D01*
X15811600Y-7529200D02*
X15731600Y-7609200D01*
X15731600Y-7783200D02*
X15811600Y-7863200D01*
X15811600Y-7783200D02*
X15731600Y-7863200D01*
X15731600Y-8037200D02*
X15811600Y-8117200D01*
X15811600Y-8037200D02*
X15731600Y-8117200D01*
X15731600Y-8291200D02*
X15811600Y-8371200D01*
X15811600Y-8291200D02*
X15731600Y-8371200D01*
X15731600Y-8545200D02*
X15811600Y-8625200D01*
X15811600Y-8545200D02*
X15731600Y-8625200D01*
X15731600Y-8799200D02*
X15811600Y-8879200D01*
X15811600Y-8799200D02*
X15731600Y-8879200D01*
X15731600Y-9053200D02*
X15811600Y-9133200D01*
X15811600Y-9053200D02*
X15731600Y-9133200D01*
X15731600Y-9307200D02*
X15811600Y-9387200D01*
X15811600Y-9307200D02*
X15731600Y-9387200D01*
X16579325Y-6513200D02*
X16659325Y-6593200D01*
X16659325Y-6513200D02*
X16579325Y-6593200D01*
X16579325Y-6767200D02*
X16659325Y-6847200D01*
X16659325Y-6767200D02*
X16579325Y-6847200D01*
X16579325Y-7021200D02*
X16659325Y-7101200D01*
X16659325Y-7021200D02*
X16579325Y-7101200D01*
X16579325Y-7275200D02*
X16659325Y-7355200D01*
X16659325Y-7275200D02*
X16579325Y-7355200D01*
X16579325Y-7529200D02*
X16659325Y-7609200D01*
X16659325Y-7529200D02*
X16579325Y-7609200D01*
X16579325Y-7783200D02*
X16659325Y-7863200D01*
X16659325Y-7783200D02*
X16579325Y-7863200D01*
X16579325Y-8037200D02*
X16659325Y-8117200D01*
X16659325Y-8037200D02*
X16579325Y-8117200D01*
X16579325Y-8291200D02*
X16659325Y-8371200D01*
X16659325Y-8291200D02*
X16579325Y-8371200D01*
X16579325Y-8545200D02*
X16659325Y-8625200D01*
X16659325Y-8545200D02*
X16579325Y-8625200D01*
X16579325Y-8799200D02*
X16659325Y-8879200D01*
X16659325Y-8799200D02*
X16579325Y-8879200D01*
X16579325Y-9053200D02*
X16659325Y-9133200D01*
X16659325Y-9053200D02*
X16579325Y-9133200D01*
X16579325Y-9307200D02*
X16659325Y-9387200D01*
X16659325Y-9307200D02*
X16579325Y-9387200D01*
X16884125Y-6513200D02*
X16964125Y-6593200D01*
X16964125Y-6513200D02*
X16884125Y-6593200D01*
X16884125Y-6767200D02*
X16964125Y-6847200D01*
X16964125Y-6767200D02*
X16884125Y-6847200D01*
X16884125Y-7021200D02*
X16964125Y-7101200D01*
X16964125Y-7021200D02*
X16884125Y-7101200D01*
X16884125Y-7275200D02*
X16964125Y-7355200D01*
X16964125Y-7275200D02*
X16884125Y-7355200D01*
X16884125Y-7529200D02*
X16964125Y-7609200D01*
X16964125Y-7529200D02*
X16884125Y-7609200D01*
X16884125Y-7783200D02*
X16964125Y-7863200D01*
X16964125Y-7783200D02*
X16884125Y-7863200D01*
X16884125Y-8037200D02*
X16964125Y-8117200D01*
X16964125Y-8037200D02*
X16884125Y-8117200D01*
X16884125Y-8291200D02*
X16964125Y-8371200D01*
X16964125Y-8291200D02*
X16884125Y-8371200D01*
X16884125Y-8545200D02*
X16964125Y-8625200D01*
X16964125Y-8545200D02*
X16884125Y-8625200D01*
X16884125Y-8799200D02*
X16964125Y-8879200D01*
X16964125Y-8799200D02*
X16884125Y-8879200D01*
X16884125Y-9053200D02*
X16964125Y-9133200D01*
X16964125Y-9053200D02*
X16884125Y-9133200D01*
X16884125Y-9307200D02*
X16964125Y-9387200D01*
X16964125Y-9307200D02*
X16884125Y-9387200D01*
D11*
X11672619Y-10331476D02*
X11672619Y-10131476D01*
X11672619Y-10131476D02*
X11720238Y-10131476D01*
X11720238Y-10131476D02*
X11748809Y-10141000D01*
X11748809Y-10141000D02*
X11767857Y-10160048D01*
X11767857Y-10160048D02*
X11777381Y-10179095D01*
X11777381Y-10179095D02*
X11786905Y-10217190D01*
X11786905Y-10217190D02*
X11786905Y-10245762D01*
X11786905Y-10245762D02*
X11777381Y-10283857D01*
X11777381Y-10283857D02*
X11767857Y-10302905D01*
X11767857Y-10302905D02*
X11748809Y-10321952D01*
X11748809Y-10321952D02*
X11720238Y-10331476D01*
X11720238Y-10331476D02*
X11672619Y-10331476D01*
X11872619Y-10331476D02*
X11872619Y-10198143D01*
X11872619Y-10236238D02*
X11882143Y-10217190D01*
X11882143Y-10217190D02*
X11891667Y-10207667D01*
X11891667Y-10207667D02*
X11910714Y-10198143D01*
X11910714Y-10198143D02*
X11929762Y-10198143D01*
X11996428Y-10331476D02*
X11996428Y-10198143D01*
X11996428Y-10131476D02*
X11986905Y-10141000D01*
X11986905Y-10141000D02*
X11996428Y-10150524D01*
X11996428Y-10150524D02*
X12005952Y-10141000D01*
X12005952Y-10141000D02*
X11996428Y-10131476D01*
X11996428Y-10131476D02*
X11996428Y-10150524D01*
X12120238Y-10331476D02*
X12101190Y-10321952D01*
X12101190Y-10321952D02*
X12091667Y-10302905D01*
X12091667Y-10302905D02*
X12091667Y-10131476D01*
X12225000Y-10331476D02*
X12205952Y-10321952D01*
X12205952Y-10321952D02*
X12196428Y-10302905D01*
X12196428Y-10302905D02*
X12196428Y-10131476D01*
X12421190Y-10331476D02*
X12421190Y-10131476D01*
X12421190Y-10131476D02*
X12487857Y-10274333D01*
X12487857Y-10274333D02*
X12554524Y-10131476D01*
X12554524Y-10131476D02*
X12554524Y-10331476D01*
X12735476Y-10331476D02*
X12735476Y-10226714D01*
X12735476Y-10226714D02*
X12725952Y-10207667D01*
X12725952Y-10207667D02*
X12706905Y-10198143D01*
X12706905Y-10198143D02*
X12668809Y-10198143D01*
X12668809Y-10198143D02*
X12649762Y-10207667D01*
X12735476Y-10321952D02*
X12716428Y-10331476D01*
X12716428Y-10331476D02*
X12668809Y-10331476D01*
X12668809Y-10331476D02*
X12649762Y-10321952D01*
X12649762Y-10321952D02*
X12640238Y-10302905D01*
X12640238Y-10302905D02*
X12640238Y-10283857D01*
X12640238Y-10283857D02*
X12649762Y-10264810D01*
X12649762Y-10264810D02*
X12668809Y-10255286D01*
X12668809Y-10255286D02*
X12716428Y-10255286D01*
X12716428Y-10255286D02*
X12735476Y-10245762D01*
X12830714Y-10198143D02*
X12830714Y-10398143D01*
X12830714Y-10207667D02*
X12849762Y-10198143D01*
X12849762Y-10198143D02*
X12887857Y-10198143D01*
X12887857Y-10198143D02*
X12906905Y-10207667D01*
X12906905Y-10207667D02*
X12916428Y-10217190D01*
X12916428Y-10217190D02*
X12925952Y-10236238D01*
X12925952Y-10236238D02*
X12925952Y-10293381D01*
X12925952Y-10293381D02*
X12916428Y-10312429D01*
X12916428Y-10312429D02*
X12906905Y-10321952D01*
X12906905Y-10321952D02*
X12887857Y-10331476D01*
X12887857Y-10331476D02*
X12849762Y-10331476D01*
X12849762Y-10331476D02*
X12830714Y-10321952D01*
X13011667Y-10312429D02*
X13021190Y-10321952D01*
X13021190Y-10321952D02*
X13011667Y-10331476D01*
X13011667Y-10331476D02*
X13002143Y-10321952D01*
X13002143Y-10321952D02*
X13011667Y-10312429D01*
X13011667Y-10312429D02*
X13011667Y-10331476D01*
X13011667Y-10207667D02*
X13021190Y-10217190D01*
X13021190Y-10217190D02*
X13011667Y-10226714D01*
X13011667Y-10226714D02*
X13002143Y-10217190D01*
X13002143Y-10217190D02*
X13011667Y-10207667D01*
X13011667Y-10207667D02*
X13011667Y-10226714D01*
D12*
X11345000Y-10638000D02*
X11425000Y-10718000D01*
X11425000Y-10638000D02*
X11345000Y-10718000D01*
D11*
X11710714Y-10551476D02*
X11729762Y-10551476D01*
X11729762Y-10551476D02*
X11748809Y-10561000D01*
X11748809Y-10561000D02*
X11758333Y-10570524D01*
X11758333Y-10570524D02*
X11767857Y-10589571D01*
X11767857Y-10589571D02*
X11777381Y-10627667D01*
X11777381Y-10627667D02*
X11777381Y-10675286D01*
X11777381Y-10675286D02*
X11767857Y-10713381D01*
X11767857Y-10713381D02*
X11758333Y-10732429D01*
X11758333Y-10732429D02*
X11748809Y-10741952D01*
X11748809Y-10741952D02*
X11729762Y-10751476D01*
X11729762Y-10751476D02*
X11710714Y-10751476D01*
X11710714Y-10751476D02*
X11691667Y-10741952D01*
X11691667Y-10741952D02*
X11682143Y-10732429D01*
X11682143Y-10732429D02*
X11672619Y-10713381D01*
X11672619Y-10713381D02*
X11663095Y-10675286D01*
X11663095Y-10675286D02*
X11663095Y-10627667D01*
X11663095Y-10627667D02*
X11672619Y-10589571D01*
X11672619Y-10589571D02*
X11682143Y-10570524D01*
X11682143Y-10570524D02*
X11691667Y-10561000D01*
X11691667Y-10561000D02*
X11710714Y-10551476D01*
X11863095Y-10732429D02*
X11872619Y-10741952D01*
X11872619Y-10741952D02*
X11863095Y-10751476D01*
X11863095Y-10751476D02*
X11853571Y-10741952D01*
X11853571Y-10741952D02*
X11863095Y-10732429D01*
X11863095Y-10732429D02*
X11863095Y-10751476D01*
X11986905Y-10637190D02*
X11967857Y-10627667D01*
X11967857Y-10627667D02*
X11958333Y-10618143D01*
X11958333Y-10618143D02*
X11948809Y-10599095D01*
X11948809Y-10599095D02*
X11948809Y-10589571D01*
X11948809Y-10589571D02*
X11958333Y-10570524D01*
X11958333Y-10570524D02*
X11967857Y-10561000D01*
X11967857Y-10561000D02*
X11986905Y-10551476D01*
X11986905Y-10551476D02*
X12025000Y-10551476D01*
X12025000Y-10551476D02*
X12044048Y-10561000D01*
X12044048Y-10561000D02*
X12053571Y-10570524D01*
X12053571Y-10570524D02*
X12063095Y-10589571D01*
X12063095Y-10589571D02*
X12063095Y-10599095D01*
X12063095Y-10599095D02*
X12053571Y-10618143D01*
X12053571Y-10618143D02*
X12044048Y-10627667D01*
X12044048Y-10627667D02*
X12025000Y-10637190D01*
X12025000Y-10637190D02*
X11986905Y-10637190D01*
X11986905Y-10637190D02*
X11967857Y-10646714D01*
X11967857Y-10646714D02*
X11958333Y-10656238D01*
X11958333Y-10656238D02*
X11948809Y-10675286D01*
X11948809Y-10675286D02*
X11948809Y-10713381D01*
X11948809Y-10713381D02*
X11958333Y-10732429D01*
X11958333Y-10732429D02*
X11967857Y-10741952D01*
X11967857Y-10741952D02*
X11986905Y-10751476D01*
X11986905Y-10751476D02*
X12025000Y-10751476D01*
X12025000Y-10751476D02*
X12044048Y-10741952D01*
X12044048Y-10741952D02*
X12053571Y-10732429D01*
X12053571Y-10732429D02*
X12063095Y-10713381D01*
X12063095Y-10713381D02*
X12063095Y-10675286D01*
X12063095Y-10675286D02*
X12053571Y-10656238D01*
X12053571Y-10656238D02*
X12044048Y-10646714D01*
X12044048Y-10646714D02*
X12025000Y-10637190D01*
X12186905Y-10551476D02*
X12205952Y-10551476D01*
X12205952Y-10551476D02*
X12225000Y-10561000D01*
X12225000Y-10561000D02*
X12234524Y-10570524D01*
X12234524Y-10570524D02*
X12244048Y-10589571D01*
X12244048Y-10589571D02*
X12253571Y-10627667D01*
X12253571Y-10627667D02*
X12253571Y-10675286D01*
X12253571Y-10675286D02*
X12244048Y-10713381D01*
X12244048Y-10713381D02*
X12234524Y-10732429D01*
X12234524Y-10732429D02*
X12225000Y-10741952D01*
X12225000Y-10741952D02*
X12205952Y-10751476D01*
X12205952Y-10751476D02*
X12186905Y-10751476D01*
X12186905Y-10751476D02*
X12167857Y-10741952D01*
X12167857Y-10741952D02*
X12158333Y-10732429D01*
X12158333Y-10732429D02*
X12148809Y-10713381D01*
X12148809Y-10713381D02*
X12139286Y-10675286D01*
X12139286Y-10675286D02*
X12139286Y-10627667D01*
X12139286Y-10627667D02*
X12148809Y-10589571D01*
X12148809Y-10589571D02*
X12158333Y-10570524D01*
X12158333Y-10570524D02*
X12167857Y-10561000D01*
X12167857Y-10561000D02*
X12186905Y-10551476D01*
X12377381Y-10551476D02*
X12396429Y-10551476D01*
X12396429Y-10551476D02*
X12415476Y-10561000D01*
X12415476Y-10561000D02*
X12425000Y-10570524D01*
X12425000Y-10570524D02*
X12434524Y-10589571D01*
X12434524Y-10589571D02*
X12444048Y-10627667D01*
X12444048Y-10627667D02*
X12444048Y-10675286D01*
X12444048Y-10675286D02*
X12434524Y-10713381D01*
X12434524Y-10713381D02*
X12425000Y-10732429D01*
X12425000Y-10732429D02*
X12415476Y-10741952D01*
X12415476Y-10741952D02*
X12396429Y-10751476D01*
X12396429Y-10751476D02*
X12377381Y-10751476D01*
X12377381Y-10751476D02*
X12358333Y-10741952D01*
X12358333Y-10741952D02*
X12348809Y-10732429D01*
X12348809Y-10732429D02*
X12339286Y-10713381D01*
X12339286Y-10713381D02*
X12329762Y-10675286D01*
X12329762Y-10675286D02*
X12329762Y-10627667D01*
X12329762Y-10627667D02*
X12339286Y-10589571D01*
X12339286Y-10589571D02*
X12348809Y-10570524D01*
X12348809Y-10570524D02*
X12358333Y-10561000D01*
X12358333Y-10561000D02*
X12377381Y-10551476D01*
X12529762Y-10751476D02*
X12529762Y-10618143D01*
X12529762Y-10637190D02*
X12539286Y-10627667D01*
X12539286Y-10627667D02*
X12558333Y-10618143D01*
X12558333Y-10618143D02*
X12586905Y-10618143D01*
X12586905Y-10618143D02*
X12605952Y-10627667D01*
X12605952Y-10627667D02*
X12615476Y-10646714D01*
X12615476Y-10646714D02*
X12615476Y-10751476D01*
X12615476Y-10646714D02*
X12625000Y-10627667D01*
X12625000Y-10627667D02*
X12644048Y-10618143D01*
X12644048Y-10618143D02*
X12672619Y-10618143D01*
X12672619Y-10618143D02*
X12691667Y-10627667D01*
X12691667Y-10627667D02*
X12701190Y-10646714D01*
X12701190Y-10646714D02*
X12701190Y-10751476D01*
X12796429Y-10751476D02*
X12796429Y-10618143D01*
X12796429Y-10637190D02*
X12805952Y-10627667D01*
X12805952Y-10627667D02*
X12825000Y-10618143D01*
X12825000Y-10618143D02*
X12853571Y-10618143D01*
X12853571Y-10618143D02*
X12872619Y-10627667D01*
X12872619Y-10627667D02*
X12882143Y-10646714D01*
X12882143Y-10646714D02*
X12882143Y-10751476D01*
X12882143Y-10646714D02*
X12891667Y-10627667D01*
X12891667Y-10627667D02*
X12910714Y-10618143D01*
X12910714Y-10618143D02*
X12939286Y-10618143D01*
X12939286Y-10618143D02*
X12958333Y-10627667D01*
X12958333Y-10627667D02*
X12967857Y-10646714D01*
X12967857Y-10646714D02*
X12967857Y-10751476D01*
X13325952Y-10541952D02*
X13154524Y-10799095D01*
X13550714Y-10551476D02*
X13569762Y-10551476D01*
X13569762Y-10551476D02*
X13588810Y-10561000D01*
X13588810Y-10561000D02*
X13598333Y-10570524D01*
X13598333Y-10570524D02*
X13607857Y-10589571D01*
X13607857Y-10589571D02*
X13617381Y-10627667D01*
X13617381Y-10627667D02*
X13617381Y-10675286D01*
X13617381Y-10675286D02*
X13607857Y-10713381D01*
X13607857Y-10713381D02*
X13598333Y-10732429D01*
X13598333Y-10732429D02*
X13588810Y-10741952D01*
X13588810Y-10741952D02*
X13569762Y-10751476D01*
X13569762Y-10751476D02*
X13550714Y-10751476D01*
X13550714Y-10751476D02*
X13531667Y-10741952D01*
X13531667Y-10741952D02*
X13522143Y-10732429D01*
X13522143Y-10732429D02*
X13512619Y-10713381D01*
X13512619Y-10713381D02*
X13503095Y-10675286D01*
X13503095Y-10675286D02*
X13503095Y-10627667D01*
X13503095Y-10627667D02*
X13512619Y-10589571D01*
X13512619Y-10589571D02*
X13522143Y-10570524D01*
X13522143Y-10570524D02*
X13531667Y-10561000D01*
X13531667Y-10561000D02*
X13550714Y-10551476D01*
X13703095Y-10732429D02*
X13712619Y-10741952D01*
X13712619Y-10741952D02*
X13703095Y-10751476D01*
X13703095Y-10751476D02*
X13693571Y-10741952D01*
X13693571Y-10741952D02*
X13703095Y-10732429D01*
X13703095Y-10732429D02*
X13703095Y-10751476D01*
X13836429Y-10551476D02*
X13855476Y-10551476D01*
X13855476Y-10551476D02*
X13874524Y-10561000D01*
X13874524Y-10561000D02*
X13884048Y-10570524D01*
X13884048Y-10570524D02*
X13893571Y-10589571D01*
X13893571Y-10589571D02*
X13903095Y-10627667D01*
X13903095Y-10627667D02*
X13903095Y-10675286D01*
X13903095Y-10675286D02*
X13893571Y-10713381D01*
X13893571Y-10713381D02*
X13884048Y-10732429D01*
X13884048Y-10732429D02*
X13874524Y-10741952D01*
X13874524Y-10741952D02*
X13855476Y-10751476D01*
X13855476Y-10751476D02*
X13836429Y-10751476D01*
X13836429Y-10751476D02*
X13817381Y-10741952D01*
X13817381Y-10741952D02*
X13807857Y-10732429D01*
X13807857Y-10732429D02*
X13798333Y-10713381D01*
X13798333Y-10713381D02*
X13788810Y-10675286D01*
X13788810Y-10675286D02*
X13788810Y-10627667D01*
X13788810Y-10627667D02*
X13798333Y-10589571D01*
X13798333Y-10589571D02*
X13807857Y-10570524D01*
X13807857Y-10570524D02*
X13817381Y-10561000D01*
X13817381Y-10561000D02*
X13836429Y-10551476D01*
X13969762Y-10551476D02*
X14093571Y-10551476D01*
X14093571Y-10551476D02*
X14026905Y-10627667D01*
X14026905Y-10627667D02*
X14055476Y-10627667D01*
X14055476Y-10627667D02*
X14074524Y-10637190D01*
X14074524Y-10637190D02*
X14084048Y-10646714D01*
X14084048Y-10646714D02*
X14093571Y-10665762D01*
X14093571Y-10665762D02*
X14093571Y-10713381D01*
X14093571Y-10713381D02*
X14084048Y-10732429D01*
X14084048Y-10732429D02*
X14074524Y-10741952D01*
X14074524Y-10741952D02*
X14055476Y-10751476D01*
X14055476Y-10751476D02*
X13998333Y-10751476D01*
X13998333Y-10751476D02*
X13979286Y-10741952D01*
X13979286Y-10741952D02*
X13969762Y-10732429D01*
X14284048Y-10751476D02*
X14169762Y-10751476D01*
X14226905Y-10751476D02*
X14226905Y-10551476D01*
X14226905Y-10551476D02*
X14207857Y-10580048D01*
X14207857Y-10580048D02*
X14188810Y-10599095D01*
X14188810Y-10599095D02*
X14169762Y-10608619D01*
X14465000Y-10551476D02*
X14369762Y-10551476D01*
X14369762Y-10551476D02*
X14360238Y-10646714D01*
X14360238Y-10646714D02*
X14369762Y-10637190D01*
X14369762Y-10637190D02*
X14388810Y-10627667D01*
X14388810Y-10627667D02*
X14436429Y-10627667D01*
X14436429Y-10627667D02*
X14455476Y-10637190D01*
X14455476Y-10637190D02*
X14465000Y-10646714D01*
X14465000Y-10646714D02*
X14474524Y-10665762D01*
X14474524Y-10665762D02*
X14474524Y-10713381D01*
X14474524Y-10713381D02*
X14465000Y-10732429D01*
X14465000Y-10732429D02*
X14455476Y-10741952D01*
X14455476Y-10741952D02*
X14436429Y-10751476D01*
X14436429Y-10751476D02*
X14388810Y-10751476D01*
X14388810Y-10751476D02*
X14369762Y-10741952D01*
X14369762Y-10741952D02*
X14360238Y-10732429D01*
X14550714Y-10551476D02*
X14550714Y-10589571D01*
X14626905Y-10551476D02*
X14626905Y-10589571D01*
X14889762Y-10827667D02*
X14880238Y-10818143D01*
X14880238Y-10818143D02*
X14861191Y-10789571D01*
X14861191Y-10789571D02*
X14851667Y-10770524D01*
X14851667Y-10770524D02*
X14842143Y-10741952D01*
X14842143Y-10741952D02*
X14832619Y-10694333D01*
X14832619Y-10694333D02*
X14832619Y-10656238D01*
X14832619Y-10656238D02*
X14842143Y-10608619D01*
X14842143Y-10608619D02*
X14851667Y-10580048D01*
X14851667Y-10580048D02*
X14861191Y-10561000D01*
X14861191Y-10561000D02*
X14880238Y-10532429D01*
X14880238Y-10532429D02*
X14889762Y-10522905D01*
X15051667Y-10551476D02*
X15013571Y-10551476D01*
X15013571Y-10551476D02*
X14994524Y-10561000D01*
X14994524Y-10561000D02*
X14985000Y-10570524D01*
X14985000Y-10570524D02*
X14965952Y-10599095D01*
X14965952Y-10599095D02*
X14956429Y-10637190D01*
X14956429Y-10637190D02*
X14956429Y-10713381D01*
X14956429Y-10713381D02*
X14965952Y-10732429D01*
X14965952Y-10732429D02*
X14975476Y-10741952D01*
X14975476Y-10741952D02*
X14994524Y-10751476D01*
X14994524Y-10751476D02*
X15032619Y-10751476D01*
X15032619Y-10751476D02*
X15051667Y-10741952D01*
X15051667Y-10741952D02*
X15061191Y-10732429D01*
X15061191Y-10732429D02*
X15070714Y-10713381D01*
X15070714Y-10713381D02*
X15070714Y-10665762D01*
X15070714Y-10665762D02*
X15061191Y-10646714D01*
X15061191Y-10646714D02*
X15051667Y-10637190D01*
X15051667Y-10637190D02*
X15032619Y-10627667D01*
X15032619Y-10627667D02*
X14994524Y-10627667D01*
X14994524Y-10627667D02*
X14975476Y-10637190D01*
X14975476Y-10637190D02*
X14965952Y-10646714D01*
X14965952Y-10646714D02*
X14956429Y-10665762D01*
X15242143Y-10551476D02*
X15204048Y-10551476D01*
X15204048Y-10551476D02*
X15185000Y-10561000D01*
X15185000Y-10561000D02*
X15175476Y-10570524D01*
X15175476Y-10570524D02*
X15156429Y-10599095D01*
X15156429Y-10599095D02*
X15146905Y-10637190D01*
X15146905Y-10637190D02*
X15146905Y-10713381D01*
X15146905Y-10713381D02*
X15156429Y-10732429D01*
X15156429Y-10732429D02*
X15165952Y-10741952D01*
X15165952Y-10741952D02*
X15185000Y-10751476D01*
X15185000Y-10751476D02*
X15223095Y-10751476D01*
X15223095Y-10751476D02*
X15242143Y-10741952D01*
X15242143Y-10741952D02*
X15251667Y-10732429D01*
X15251667Y-10732429D02*
X15261191Y-10713381D01*
X15261191Y-10713381D02*
X15261191Y-10665762D01*
X15261191Y-10665762D02*
X15251667Y-10646714D01*
X15251667Y-10646714D02*
X15242143Y-10637190D01*
X15242143Y-10637190D02*
X15223095Y-10627667D01*
X15223095Y-10627667D02*
X15185000Y-10627667D01*
X15185000Y-10627667D02*
X15165952Y-10637190D01*
X15165952Y-10637190D02*
X15156429Y-10646714D01*
X15156429Y-10646714D02*
X15146905Y-10665762D01*
X15466905Y-10751476D02*
X15466905Y-10551476D01*
X15552619Y-10751476D02*
X15552619Y-10646714D01*
X15552619Y-10646714D02*
X15543095Y-10627667D01*
X15543095Y-10627667D02*
X15524048Y-10618143D01*
X15524048Y-10618143D02*
X15495476Y-10618143D01*
X15495476Y-10618143D02*
X15476429Y-10627667D01*
X15476429Y-10627667D02*
X15466905Y-10637190D01*
X15676429Y-10751476D02*
X15657381Y-10741952D01*
X15657381Y-10741952D02*
X15647857Y-10732429D01*
X15647857Y-10732429D02*
X15638333Y-10713381D01*
X15638333Y-10713381D02*
X15638333Y-10656238D01*
X15638333Y-10656238D02*
X15647857Y-10637190D01*
X15647857Y-10637190D02*
X15657381Y-10627667D01*
X15657381Y-10627667D02*
X15676429Y-10618143D01*
X15676429Y-10618143D02*
X15705000Y-10618143D01*
X15705000Y-10618143D02*
X15724048Y-10627667D01*
X15724048Y-10627667D02*
X15733572Y-10637190D01*
X15733572Y-10637190D02*
X15743095Y-10656238D01*
X15743095Y-10656238D02*
X15743095Y-10713381D01*
X15743095Y-10713381D02*
X15733572Y-10732429D01*
X15733572Y-10732429D02*
X15724048Y-10741952D01*
X15724048Y-10741952D02*
X15705000Y-10751476D01*
X15705000Y-10751476D02*
X15676429Y-10751476D01*
X15857381Y-10751476D02*
X15838333Y-10741952D01*
X15838333Y-10741952D02*
X15828810Y-10722905D01*
X15828810Y-10722905D02*
X15828810Y-10551476D01*
X16009762Y-10741952D02*
X15990714Y-10751476D01*
X15990714Y-10751476D02*
X15952619Y-10751476D01*
X15952619Y-10751476D02*
X15933572Y-10741952D01*
X15933572Y-10741952D02*
X15924048Y-10722905D01*
X15924048Y-10722905D02*
X15924048Y-10646714D01*
X15924048Y-10646714D02*
X15933572Y-10627667D01*
X15933572Y-10627667D02*
X15952619Y-10618143D01*
X15952619Y-10618143D02*
X15990714Y-10618143D01*
X15990714Y-10618143D02*
X16009762Y-10627667D01*
X16009762Y-10627667D02*
X16019286Y-10646714D01*
X16019286Y-10646714D02*
X16019286Y-10665762D01*
X16019286Y-10665762D02*
X15924048Y-10684810D01*
X16095476Y-10741952D02*
X16114524Y-10751476D01*
X16114524Y-10751476D02*
X16152619Y-10751476D01*
X16152619Y-10751476D02*
X16171667Y-10741952D01*
X16171667Y-10741952D02*
X16181191Y-10722905D01*
X16181191Y-10722905D02*
X16181191Y-10713381D01*
X16181191Y-10713381D02*
X16171667Y-10694333D01*
X16171667Y-10694333D02*
X16152619Y-10684810D01*
X16152619Y-10684810D02*
X16124048Y-10684810D01*
X16124048Y-10684810D02*
X16105000Y-10675286D01*
X16105000Y-10675286D02*
X16095476Y-10656238D01*
X16095476Y-10656238D02*
X16095476Y-10646714D01*
X16095476Y-10646714D02*
X16105000Y-10627667D01*
X16105000Y-10627667D02*
X16124048Y-10618143D01*
X16124048Y-10618143D02*
X16152619Y-10618143D01*
X16152619Y-10618143D02*
X16171667Y-10627667D01*
X16247857Y-10827667D02*
X16257381Y-10818143D01*
X16257381Y-10818143D02*
X16276429Y-10789571D01*
X16276429Y-10789571D02*
X16285953Y-10770524D01*
X16285953Y-10770524D02*
X16295476Y-10741952D01*
X16295476Y-10741952D02*
X16305000Y-10694333D01*
X16305000Y-10694333D02*
X16305000Y-10656238D01*
X16305000Y-10656238D02*
X16295476Y-10608619D01*
X16295476Y-10608619D02*
X16285953Y-10580048D01*
X16285953Y-10580048D02*
X16276429Y-10561000D01*
X16276429Y-10561000D02*
X16257381Y-10532429D01*
X16257381Y-10532429D02*
X16247857Y-10522905D01*
M02*
