M48
; DRILL file {KiCad (7.0.0)} date Thu Mar 30 08:57:15 2023
; FORMAT={-:-/ absolute / inch / decimal}
; #@! TF.CreationDate,2023-03-30T08:57:15+02:00
; #@! TF.GenerationSoftware,Kicad,Pcbnew,(7.0.0)
; #@! TF.FileFunction,Plated,1,2,PTH
FMAT,2
INCH
; #@! TA.AperFunction,Plated,PTH,ViaDrill
T1C0.0157
; #@! TA.AperFunction,Plated,PTH,ComponentDrill
T2C0.0236
; #@! TA.AperFunction,Plated,PTH,ComponentDrill
T3C0.0300
; #@! TA.AperFunction,Plated,PTH,ComponentDrill
T4C0.0315
; #@! TA.AperFunction,Plated,PTH,ComponentDrill
T5C0.0394
; #@! TA.AperFunction,Plated,PTH,ViaDrill
T6C0.0400
; #@! TA.AperFunction,Plated,PTH,ComponentDrill
T7C0.0409
%
G90
G05
T1
X3.91Y-4.2
T2
X5.9187Y-2.2581
X5.9187Y-2.3172
T3
X4.727Y-3.5306
X4.727Y-3.6306
X4.727Y-3.7306
X4.976Y-2.9316
X4.976Y-3.7306
X5.076Y-2.9306
X5.077Y-3.7306
X5.575Y-2.9316
X5.577Y-3.7306
X5.677Y-2.9316
X5.679Y-3.7306
T4
X3.4433Y-4.1339
X3.5433Y-4.1339
X3.7008Y-4.1339
X3.8008Y-4.1339
X3.825Y-2.7
X4.0126Y-3.8583
X4.0126Y-4.1339
X4.1126Y-3.8583
X4.1126Y-4.1339
X4.2126Y-3.8583
X4.2126Y-4.1339
X4.225Y-2.7
X4.3126Y-3.8583
X4.3126Y-4.1339
X4.4126Y-3.8583
X4.4126Y-4.1339
X4.425Y-2.45
X4.5126Y-3.8583
X4.5126Y-4.1339
X4.575Y-2.7
X4.7756Y-4.1339
X4.825Y-2.45
X4.8756Y-4.1339
X4.975Y-2.7
X4.9756Y-4.1339
X5.0756Y-4.1339
X5.1756Y-4.1339
X5.2Y-3.52
X5.2Y-3.9
X5.2756Y-4.1339
X5.3756Y-4.1339
X5.4756Y-4.1339
X5.5Y-3.52
X5.6Y-3.9
X5.67Y-3.52
X5.8268Y-2.5984
X5.9268Y-2.5984
X5.97Y-3.52
T5
X3.5392Y-2.9337
X3.5392Y-3.4848
X4.4447Y-2.9337
X4.4447Y-3.0337
X4.4447Y-3.3848
X4.4447Y-3.4848
X5.4331Y-2.422
X5.4331Y-2.678
T6
X5.43Y-2.745
X5.435Y-2.515
T7
X6.175Y-2.2
X6.175Y-2.3
X6.175Y-2.4
X6.175Y-2.5
X6.175Y-2.6
X6.175Y-2.7
X6.175Y-2.8
X6.175Y-2.9
X6.175Y-3.0
X6.175Y-3.1
X6.175Y-3.2
X6.175Y-3.3
X6.175Y-3.4
X6.175Y-3.5
X6.175Y-3.6
X6.175Y-3.7
X6.175Y-3.8
X6.175Y-3.9
X6.175Y-4.0
X7.175Y-2.2
X7.175Y-2.3
X7.175Y-2.4
X7.175Y-2.5
X7.175Y-2.6
X7.175Y-2.7
X7.175Y-2.8
X7.175Y-2.9
X7.175Y-3.0
X7.175Y-3.1
X7.175Y-3.2
X7.175Y-3.3
X7.175Y-3.4
X7.175Y-3.5
X7.175Y-3.6
X7.175Y-3.7
X7.175Y-3.8
X7.175Y-3.9
X7.175Y-4.0
T0
M30
