%TF.GenerationSoftware,KiCad,Pcbnew,(7.0.0)*%
%TF.CreationDate,2023-03-30T08:56:28+02:00*%
%TF.ProjectId,HM-Base,484d2d42-6173-4652-9e6b-696361645f70,rev?*%
%TF.SameCoordinates,Original*%
%TF.FileFunction,Soldermask,Top*%
%TF.FilePolarity,Negative*%
%FSLAX46Y46*%
G04 Gerber Fmt 4.6, Leading zero omitted, Abs format (unit mm)*
G04 Created by KiCad (PCBNEW (7.0.0)) date 2023-03-30 08:56:28*
%MOMM*%
%LPD*%
G01*
G04 APERTURE LIST*
G04 Aperture macros list*
%AMRoundRect*
0 Rectangle with rounded corners*
0 $1 Rounding radius*
0 $2 $3 $4 $5 $6 $7 $8 $9 X,Y pos of 4 corners*
0 Add a 4 corners polygon primitive as box body*
4,1,4,$2,$3,$4,$5,$6,$7,$8,$9,$2,$3,0*
0 Add four circle primitives for the rounded corners*
1,1,$1+$1,$2,$3*
1,1,$1+$1,$4,$5*
1,1,$1+$1,$6,$7*
1,1,$1+$1,$8,$9*
0 Add four rect primitives between the rounded corners*
20,1,$1+$1,$2,$3,$4,$5,0*
20,1,$1+$1,$4,$5,$6,$7,0*
20,1,$1+$1,$6,$7,$8,$9,0*
20,1,$1+$1,$8,$9,$2,$3,0*%
G04 Aperture macros list end*
%ADD10C,1.606436*%
%ADD11C,1.524000*%
%ADD12O,1.200000X2.000000*%
%ADD13RoundRect,0.390000X-0.644000X-0.390000X0.644000X-0.390000X0.644000X0.390000X-0.644000X0.390000X0*%
%ADD14RoundRect,0.390000X-0.626000X-0.390000X0.626000X-0.390000X0.626000X0.390000X-0.626000X0.390000X0*%
%ADD15R,1.560000X1.560000*%
%ADD16C,1.600000*%
%ADD17R,1.600000X1.600000*%
%ADD18O,1.600000X1.600000*%
%ADD19R,1.200000X1.200000*%
%ADD20C,1.200000*%
%ADD21C,2.000000*%
G04 APERTURE END LIST*
D10*
%TO.C,U2*%
X120065800Y-94756500D03*
D11*
X120065800Y-92216500D03*
X120065800Y-89676500D03*
X144195800Y-74461900D03*
X141605000Y-74461900D03*
X144246600Y-94756500D03*
X141655800Y-94756500D03*
X128930400Y-74436500D03*
X126390400Y-74461900D03*
X128955800Y-94756500D03*
X126390400Y-94756500D03*
%TD*%
D12*
%TO.C,J4*%
X114619999Y-104999999D03*
X112079999Y-104999999D03*
X109539999Y-104999999D03*
X106999999Y-104999999D03*
X104459999Y-104999999D03*
X101919999Y-104999999D03*
%TD*%
D13*
%TO.C,U3*%
X182245000Y-101600000D03*
X182245000Y-99060000D03*
X182245000Y-96520000D03*
X182245000Y-93980000D03*
X182245000Y-91440000D03*
X182245000Y-88900000D03*
X182245000Y-86360000D03*
X182245000Y-83820000D03*
X182245000Y-81280000D03*
X182245000Y-78740000D03*
X182245000Y-76200000D03*
X182245000Y-73660000D03*
X182245000Y-71120000D03*
X182245000Y-68580000D03*
X182245000Y-66040000D03*
X182245000Y-63500000D03*
X182245000Y-60960000D03*
X182245000Y-58420000D03*
X182245000Y-55880000D03*
D14*
X156845000Y-101600000D03*
X156845000Y-99060000D03*
X156845000Y-96520000D03*
D13*
X156845000Y-93980000D03*
X156845000Y-91440000D03*
D14*
X156845000Y-88900000D03*
X156845000Y-86360000D03*
X156845000Y-83820000D03*
D13*
X156845000Y-81280000D03*
X156845000Y-78740000D03*
X156845000Y-76200000D03*
X156845000Y-73660000D03*
X156845000Y-71120000D03*
X156845000Y-68580000D03*
X156845000Y-66040000D03*
X156845000Y-63500000D03*
X156845000Y-60960000D03*
X156845000Y-58420000D03*
D15*
X156844999Y-55879999D03*
%TD*%
D16*
%TO.C,BZ1*%
X138000000Y-61520000D03*
D17*
X137999999Y-68019999D03*
%TD*%
D12*
%TO.C,J3*%
X101919999Y-97999999D03*
X104459999Y-97999999D03*
X106999999Y-97999999D03*
X109539999Y-97999999D03*
X112079999Y-97999999D03*
X114619999Y-97999999D03*
%TD*%
%TO.C,J5*%
X121299999Y-104999999D03*
X123839999Y-104999999D03*
X126379999Y-104999999D03*
X128919999Y-104999999D03*
X131459999Y-104999999D03*
X133999999Y-104999999D03*
X136539999Y-104999999D03*
X139079999Y-104999999D03*
%TD*%
%TO.C,J2*%
X96539999Y-104999999D03*
X93999999Y-104999999D03*
%TD*%
D16*
%TO.C,R4*%
X132080000Y-99060000D03*
D18*
X142239999Y-99059999D03*
%TD*%
D17*
%TO.C,D1*%
X144017999Y-89407999D03*
D18*
X151637999Y-89407999D03*
%TD*%
D16*
%TO.C,R3*%
X116205000Y-68580000D03*
D18*
X126364999Y-68579999D03*
%TD*%
D12*
%TO.C,J6*%
X150539999Y-65999999D03*
X147999999Y-65999999D03*
%TD*%
D16*
%TO.C,R1*%
X107315000Y-68580000D03*
D18*
X97154999Y-68579999D03*
%TD*%
D16*
%TO.C,R2*%
X112395000Y-62230000D03*
D18*
X122554999Y-62229999D03*
%TD*%
D12*
%TO.C,J1*%
X87459999Y-104999999D03*
X89999999Y-104999999D03*
%TD*%
D17*
%TO.C,D2*%
X139699999Y-89407999D03*
D18*
X132079999Y-89407999D03*
%TD*%
D19*
%TO.C,C1*%
X150334899Y-58855999D03*
D20*
X150334900Y-57356000D03*
%TD*%
D21*
%TO.C,U1*%
X89895000Y-74515000D03*
X89895000Y-88515000D03*
X112895000Y-74515000D03*
X112895000Y-77055000D03*
X112895000Y-85975000D03*
X112895000Y-88515000D03*
%TD*%
M02*
